<?xml version="1.0" encoding="UTF-8" standalone="no"?>
<!-- Created with Inkscape (http://www.inkscape.org/) -->

<svg
   width="260.89261mm"
   height="134.8159mm"
   viewBox="0 0 260.89261 134.8159"
   version="1.1"
   id="svg2329"
   inkscape:version="1.1 (c68e22c387, 2021-05-23)"
   sodipodi:docname="Rome urban zones Municipio XI locator map.svg"
   xmlns:inkscape="http://www.inkscape.org/namespaces/inkscape"
   xmlns:sodipodi="http://sodipodi.sourceforge.net/DTD/sodipodi-0.dtd"
   xmlns="http://www.w3.org/2000/svg"
   xmlns:svg="http://www.w3.org/2000/svg"
   xmlns:rdf="http://www.w3.org/1999/02/22-rdf-syntax-ns#"
   xmlns:cc="http://creativecommons.org/ns#"
   xmlns:dc="http://purl.org/dc/elements/1.1/">
  <defs
     id="defs2323" />
  <sodipodi:namedview
     id="base"
     pagecolor="#ffffff"
     bordercolor="#666666"
     borderopacity="1.0"
     inkscape:pageopacity="0.0"
     inkscape:pageshadow="2"
     inkscape:zoom="1"
     inkscape:cx="512"
     inkscape:cy="234.5"
     inkscape:document-units="mm"
     inkscape:current-layer="layer1"
     showgrid="false"
     fit-margin-top="0"
     fit-margin-left="0"
     fit-margin-right="0"
     fit-margin-bottom="0"
     inkscape:window-width="1920"
     inkscape:window-height="1017"
     inkscape:window-x="-8"
     inkscape:window-y="-8"
     inkscape:window-maximized="1"
     inkscape:pagecheckerboard="0" />
  <metadata
     id="metadata2326">
    <rdf:RDF>
      <cc:Work
         rdf:about="">
        <dc:format>image/svg+xml</dc:format>
        <dc:type
           rdf:resource="http://purl.org/dc/dcmitype/StillImage" />
      </cc:Work>
    </rdf:RDF>
  </metadata>
  <g
     inkscape:label="Livello 1"
     inkscape:groupmode="layer"
     id="layer1"
     transform="translate(37.343072,-38.343276)">
    <path
       d="m 202.61998,40.917698 2e-4,-3.13e-4 0.16579,-0.184282 0.18405,-0.210856 0.15152,-0.149218 0.29708,-0.19856 0.36452,-0.217956 0.22252,-0.161514 0.29074,-0.161197 0.26972,-0.126133 0.30224,-0.103603 0.35738,-0.116376 0.32644,-0.101184 0.27328,-0.06886 0.14359,-0.01705 0.1654,-0.03649 0.36967,-0.07128 0.38396,-0.06013 0.54689,-0.06077 1.20152,-0.01269 2.00392,0.0044 0.74574,-0.0549 1.56686,-0.07893 2.15831,-0.115027 1.17089,-0.06382 0.0563,0.312636 0.3419,0.994991 0.0417,0.131686 0.24275,0.783001 0.91803,2.851265 0.0428,0.13359 0.61563,1.961119 0.17889,0.32521 0.43615,0.842188 0.20625,0.345794 0.0797,0.197093 0.0773,0.181148 0.14041,0.175674 0.23759,0.232236 0.95008,1.086188 0.75886,0.910716 0.19674,0.211372 0.20625,0.247348 0.22569,0.235408 0.3431,0.555267 0.22292,0.376654 0.16817,0.281975 0.13367,0.415061 -0.0238,0.238741 0.1075,0.48044 0.11939,0.67029 0.0198,0.479496 -10e-4,0.130456 0.0238,0.236639 -0.0734,0.310652 -0.0702,0.300022 -0.13565,0.387443 -0.19277,0.507411 -0.10987,0.241597 -0.12931,0.216092 -0.16262,0.447487 -0.25029,0.283997 -0.20427,0.131607 -0.2951,0.26833 -0.24909,0.2483 -0.2955,0.236242 -0.33319,0.372766 -0.51349,0.331635 -0.56871,0.254924 -0.33398,0.219027 -0.44087,0.180077 -0.3989,0.202765 -0.30939,0.162465 -0.65137,0.15604 -1.74912,0.363129 -1.58325,0.309065 -0.38792,0.110069 -0.12573,-0.899174 -0.19357,-1.144431 -0.95857,0.150487 -0.32445,0.04407 -0.15985,0.03094 -1.75373,0.01785 -1.17089,0.05835 -0.98479,-0.0021 -1.23678,0.02419 -0.6384,-0.01071 -0.66954,-0.223549 -0.50417,-0.166869 -0.53785,-0.158896 -0.0317,-0.0095 -0.33041,-0.11701 -0.0611,-0.198442 -0.044,-0.185352 -0.004,-0.102096 0.003,-0.151876 0.0278,-0.10987 0.0655,-0.139262 0.0627,-0.216291 0.25028,-0.607426 0.0317,-0.127719 0.008,-0.05886 -0.0512,-0.167702 -0.0524,-0.262579 -0.0524,-0.214188 -0.0159,-0.202447 -0.0397,-0.149535 -0.001,-0.180632 0.0198,-0.185234 -0.0159,-0.132757 0.0238,-0.07798 0.50973,-2.233662 0.31295,-1.188403 0.33159,-1.457697 -0.80177,-0.989007 -0.17135,-0.219542 -0.15866,0.174087 -0.12375,0.123198 -0.19515,0.08722 -0.14637,0.06537 -0.23243,0.04311 -0.20388,-0.0115 -0.17055,-0.01745 -0.14002,-0.0075 -0.13327,-0.01111 -0.071,0.0071 -0.12574,0.01071 -0.22608,-0.40173 -0.40898,-0.809342 -0.39348,-0.651608 -0.18523,-0.514861 -0.26694,-0.644262 -0.0452,-0.323107 -0.0528,-0.160681 -0.0773,-0.275707 -0.0456,-0.215854 0.0238,-0.215656 -0.0405,-0.174524 0.004,-0.189319 5.2e-4,-0.470159 0.0119,-0.408972 0.004,-0.312755 0.065,-0.16425 0.0468,-0.188168 0.094,-0.202765 0.0845,-0.283443 0.0611,-0.121532 0.0651,-0.117843 0.0877,-0.167186 0.0631,-0.194792 0.14438,-0.233505 0.14557,-0.260278 0.15548,-0.241993 0.22728,-0.275787 0.12454,-0.144617 z"
       id="path98"
       style="fill:#fff6d5;fill-opacity:1;stroke:#000000;stroke-width:0.396875;stroke-miterlimit:4;stroke-dasharray:none;stroke-opacity:1"
       inkscape:connector-curvature="0">
      <title
         id="title2813">15A Marconi</title>
    </path>
    <path
       d="m 202.92476,49.313764 0.12574,-0.01071 0.071,-0.0075 0.13327,0.01111 0.14002,0.0071 0.17055,0.01785 0.20388,0.0115 0.23243,-0.04312 0.14636,-0.06537 0.19515,-0.08722 0.12376,-0.123198 0.15865,-0.174088 0.17135,0.219543 0.80178,0.98901 -0.33159,1.457694 -0.31296,1.188403 -0.50972,2.233662 -0.0238,0.07798 0.0159,0.132757 -0.0198,0.185233 0.001,0.180632 0.0397,0.149536 0.0159,0.202447 0.0524,0.214188 0.0524,0.262579 0.0512,0.167702 -0.008,0.05886 -0.0317,0.127719 -0.25028,0.607426 -0.0627,0.216291 -0.0654,0.139262 -0.0317,0.10987 -0.003,0.151875 0.004,0.102097 0.044,0.185312 0.0611,0.198442 -0.20824,0.353133 -0.77857,1.067403 -0.14954,0.220812 -0.26099,0.335403 -0.45935,0.485164 -0.33398,0.227832 -0.41318,0.413277 -0.0837,0.07608 -0.27329,0.244016 -0.22331,0.140016 -0.74585,0.635758 -0.2721,0.258255 -0.20269,0.263848 -0.16104,-0.02777 -0.17452,-0.023 -0.11701,-0.01587 -0.19039,0.01944 -0.26654,0.07072 -0.21816,0.104318 -0.14001,0.129901 -1.11053,1.082515 -0.81415,1.003698 -0.89991,1.373006 -0.22331,0.493874 -0.0972,0.249133 -0.11423,0.339805 0.13922,0.08282 0.15628,0.09761 0.0528,0.07124 -0.34706,0.849534 -0.26457,1.123651 -0.075,0.501851 -0.11582,0.661575 -0.261,1.322105 -0.0714,0.330365 -0.21578,1.468296 -0.28479,1.4896 -2.3e-4,0.139381 -0.003,0.205501 0.0317,0.229737 -0.11026,0.24703 -0.12217,0.427127 -0.0781,0.194356 0.003,0.157429 0.0528,0.334054 0.0944,0.472884 0.0595,0.428912 -0.0278,0.219027 -0.0428,0.409917 -0.20665,0.481804 -0.17095,0.221963 -0.11662,0.186066 -0.11582,0.118081 -0.16262,0.163179 -0.1773,0.02499 -0.0956,0.02221 -0.0853,0.167265 -0.11265,0.18797 -0.0948,0.35472 -0.20308,1.441847 -0.11423,0.55967 -0.17016,0.377606 -0.15152,0.381572 -0.33477,0.558437 -0.30304,0.479067 -0.17333,0.0825 -0.1182,0.06822 -0.075,0.04442 -0.29232,0.07695 -0.43469,-0.0357 -0.30224,-0.0821 -0.27805,-0.04244 -0.28598,-0.09242 -0.17333,-0.05355 -0.2007,0.140809 -0.38039,0.201495 -0.0734,0.03966 -0.39827,0.179283 -0.33754,0.107887 -0.36888,0.09083 -0.33358,0.07417 -0.29391,-0.0079 -0.31415,0.001 -0.30621,-1.98e-4 -0.23164,-0.02777 -0.1773,-0.01587 -0.66846,-0.218155 -0.39427,-0.220931 -0.30978,-0.237987 -0.20467,-0.129306 -0.16143,-0.142396 -0.66442,0.409298 0.11939,0.205462 0.0833,0.172144 0.18126,0.239574 0.0238,0.129702 0.0198,0.186424 0.002,0.291533 -0.10908,0.300657 -0.0881,0.403071 -0.11502,0.543641 -0.20547,1.018068 0.008,0.171748 -0.0119,0.131686 0.0238,0.245523 0.0416,0.221328 0.11622,0.187613 0.10313,0.312159 0.40886,0.768301 0.16738,0.221328 0.0849,0.161434 0.53729,1.034886 0.0278,0.08131 -0.0972,0.115027 -0.0682,0.09638 -0.05,0.153898 -0.0119,0.172938 0.0476,0.103127 0.10273,0.0944 0.15389,0.135256 0.83002,0.62884 1.49496,1.199097 -0.93473,1.67753 -1.09867,1.976561 -0.32168,-0.324059 -0.21934,-0.217362 -0.21102,-0.184836 -0.29114,-0.18563 -0.41064,-0.262579 -1.25078,-0.687901 -1.16741,-0.749738 -0.41461,-0.348254 -0.21498,-0.185233 -0.20745,-0.174127 -0.15548,-0.213792 -0.17492,-0.278841 -0.2249,-0.430399 -0.14438,-0.354601 -0.19198,-0.46689 -0.24631,-0.801064 -0.0654,-0.270115 -0.18483,-0.572161 -0.12415,-0.366499 -0.2725,-0.594412 -0.30462,-0.858141 -0.17453,-0.553994 -0.0932,-0.326439 -0.16024,-0.821729 -0.0397,-0.957421 -0.0317,-0.09757 -0.008,-0.05394 -0.008,-0.112647 0.0504,-0.209428 -0.0119,-0.245127 -0.0159,-0.29193 0.0159,-0.353411 -0.142,-0.349047 -0.0484,-0.07655 -0.0198,-0.04522 -0.0623,-0.06822 -0.0599,-0.05712 -0.17294,-0.210618 -0.0964,-0.265752 -0.26496,-1.060668 -0.35579,-1.599804 -0.50449,-2.313839 -0.33556,-1.793941 -0.0857,-0.34758 -0.11344,-0.67365 -0.0777,-0.268647 -0.10154,-0.272971 -0.18801,-0.325527 -0.20189,-0.225968 -0.13486,-0.227397 -0.12177,-0.393353 -0.2955,-0.798949 -0.12217,-0.250283 -0.2483,-0.454309 -0.35579,-0.797062 -0.59989,-1.485506 0.0686,0.02697 0.13486,0.0075 0.142,-0.01071 0.29352,-0.2057 0.52547,-0.365111 0.11741,-0.08583 0.88142,-0.520739 1.10585,-0.644473 0.68318,-0.37118 0.68195,-0.369316 0.47498,-0.200345 0.14042,-0.09591 0.50374,-0.265712 0.40854,-0.302363 0.35262,-0.218392 0.28082,-0.222161 0.25703,-0.246197 0.59064,-0.53837 0.12019,-0.169804 0.22886,-0.18448 0.16302,-0.184598 0.3665,-0.416318 0.63995,-0.758548 0.12335,-0.189319 0.26853,-0.406767 0.0405,-0.107768 0.13248,-0.180196 0.10114,-0.209666 0.10035,-0.136525 0.31375,-0.258811 0.17452,-0.121612 0.20071,-0.188882 0.17412,-0.05561 0.17611,-0.07881 0.2491,-0.06223 0.2356,-0.109236 0.14002,-0.03332 0.32564,-0.03134 0.47657,-0.252187 0.0877,-0.03332 0.18484,-0.110704 0.21696,-0.195506 0.44159,-0.380105 0.61908,-0.550019 0.10273,-0.08992 0.20546,-0.172619 0.20705,-0.224462 0.2725,-0.310017 0.2955,-0.321957 0.17928,-0.278841 0.19158,-0.333936 0.87671,-1.579221 0.61836,-1.159548 0.11226,-0.17726 0.24036,-0.312834 0.41933,-0.395137 0.13685,-0.206851 0.37403,-0.357139 0.40918,-0.413272 0.59675,-0.566813 0.332,-0.245801 0.32524,-0.244214 0.48903,-0.316087 0.78563,-0.493346 0.766,-0.417057 0.10154,-0.047 0.39308,-0.142118 0.74783,-0.303076 0.36531,-0.148306 0.62182,-0.244333 0.17413,-0.05383 0.81594,-0.481701 0.13605,-0.07461 0.92521,-0.560721 0.27012,-0.140412 0.66922,-0.400266 0.84271,-0.348651 0.20149,-0.169169 0.32803,-0.24231 0.22688,-0.123833 0.28281,-0.113123 0.18563,-0.08932 0.1654,-0.08805 0.14953,-0.03649 0.0924,-0.0115 z"
       id="path100"
       style="fill:#fff6d5;fill-opacity:1;stroke:#000000;stroke-width:0.396875;stroke-miterlimit:4;stroke-dasharray:none;stroke-opacity:1"
       inkscape:connector-curvature="0">
      <title
         id="title2837">15B Portuense</title>
    </path>
    <path
       d="m 187.17566,95.056293 -1.49495,-1.199097 -0.83002,-0.628841 -0.1539,-0.135256 -0.10273,-0.0944 -0.0476,-0.103128 0.0119,-0.172937 0.05,-0.153898 0.0682,-0.09638 0.0972,-0.115027 -0.0317,-0.08131 -0.5373,-1.034846 -0.0849,-0.161435 -0.16738,-0.221328 -0.40891,-0.76834 -0.10312,-0.31216 -0.11622,-0.187613 -0.0417,-0.221328 -0.0238,-0.245523 0.0119,-0.131686 -0.008,-0.171747 0.20546,-1.018068 0.11503,-0.543602 0.088,-0.40311 0.10908,-0.300657 -0.002,-0.291534 -0.0198,-0.186423 -0.0238,-0.129703 -0.18127,-0.239573 -0.0833,-0.172144 -0.11939,-0.205462 0.66438,-0.409298 0.16143,0.142396 0.20467,0.129306 0.30978,0.237987 0.39426,0.220931 0.66851,0.218155 0.1773,0.01586 0.23164,0.02777 0.30621,2.38e-4 0.31414,-0.0011 0.29392,0.0079 0.33357,-0.07417 0.36888,-0.09083 0.33755,-0.107887 0.39827,-0.179284 0.0734,-0.03966 0.38038,-0.201496 0.2007,-0.140809 0.17334,0.05355 0.28598,0.09242 0.27805,0.04244 0.30224,0.0821 0.43468,0.0357 0.29233,-0.07695 0.075,-0.04442 0.1182,-0.06783 0.17333,-0.0825 0.30304,-0.479067 0.33476,-0.558397 0.15152,-0.381572 0.17016,-0.377606 0.11424,-0.559694 0.20308,-1.441847 0.0948,-0.35472 0.11264,-0.18797 0.0853,-0.167304 0.0956,-0.02221 0.17731,-0.02499 0.16262,-0.16318 0.11582,-0.118081 0.11661,-0.186066 0.17096,-0.221962 0.20665,-0.481805 0.0428,-0.409916 0.0278,-0.219028 -0.0595,-0.428912 -0.0944,-0.472884 -0.0528,-0.334054 -0.003,-0.157428 0.0781,-0.194356 0.12216,-0.427127 0.11027,-0.24703 -0.0317,-0.229737 0.003,-0.205502 2.4e-4,-0.139381 0.28479,-1.489599 0.21578,-1.468292 0.0714,-0.330366 0.26099,-1.322104 0.11582,-0.66158 0.075,-0.501847 0.26456,-1.123655 0.34707,-0.849534 -0.0528,-0.07128 -0.15628,-0.09761 -0.13922,-0.08282 0.11424,-0.339805 0.0972,-0.249133 0.22331,-0.493874 0.89991,-1.373002 0.81416,-1.003702 1.11052,-1.082511 0.14002,-0.129941 0.21815,-0.104318 0.26655,-0.07072 0.19039,-0.01944 0.11701,0.01587 0.17452,0.023 0.16104,0.02777 0.20268,-0.263848 0.2721,-0.258255 0.74585,-0.635762 0.22331,-0.140016 0.27329,-0.244016 0.0837,-0.07608 0.41319,-0.413276 0.33397,-0.227833 0.45932,-0.485164 0.26099,-0.335403 0.14954,-0.220812 0.77861,-1.067399 0.20824,-0.353133 0.3304,0.11701 0.0317,0.0095 0.53785,0.158895 0.50413,0.166869 0.66958,0.223549 0.63836,0.01071 1.23678,-0.02419 0.98483,0.0021 1.17089,-0.05835 1.75373,-0.01785 0.15984,-0.03094 0.32446,-0.04407 0.95857,-0.150487 0.19356,1.144432 0.12574,0.899174 -0.2721,0.06707 -0.31454,0.02301 -0.48117,0.09488 -0.45114,0.02975 -1.258,0.154176 -0.93537,0.04565 -0.4536,0.0635 -0.3788,-0.02538 -0.57573,-0.05089 -1.29595,-0.05259 -1.55699,-0.08353 -0.34746,-0.04605 -0.3911,-0.0095 -0.2011,0.01745 -0.24988,0.04986 -0.23283,0.04847 -0.19396,0.101462 -0.28876,0.182814 -0.24394,0.166115 -0.2118,0.156357 -0.18801,0.173254 -0.15311,0.115226 -0.18364,0.201932 -0.21261,0.19027 -0.19991,0.162148 -0.18483,0.24128 -0.14478,0.199393 -0.18245,0.203796 -0.16263,0.308034 -0.1539,0.27789 -0.11621,0.225334 -0.15826,0.245562 -0.15787,0.367095 -0.0718,0.312517 -0.19872,0.710902 -0.32922,0.599763 -0.51651,1.647119 -0.25782,1.80853 0.16144,2.130082 0.94136,2.012016 4.01479,2.167232 3.92326,2.099961 2.40002,1.234477 0.77147,0.398164 0.33715,0.122563 0.19911,0.188169 0.23085,0.187335 0.87092,0.785412 0.11106,0.224898 0.11621,0.221526 0.17611,0.332269 0.18167,0.318189 0.10312,0.264046 0.0821,0.213237 0.0607,0.477294 0.0432,0.212205 0.0278,0.292327 0.002,0.425561 -0.0238,0.190389 -0.0317,0.104318 -0.0595,0.11106 -0.0928,0.197529 -0.16382,0.214982 -0.1658,0.136446 -0.14279,0.178093 -0.19991,0.162228 -0.25663,0.180077 -0.21299,0.11344 -0.28559,0.120184 -0.87472,0.381969 -1.2672,0.41485 -1.97426,0.590644 -1.05658,0.340718 -0.40581,0.120183 -0.3074,0.135653 -0.29074,0.1182 -0.19872,0.07457 -0.3193,0.172937 -0.45864,0.233228 -0.41493,0.200702 -0.88511,0.417151 -0.407,0.202289 -0.20506,0.117407 -0.20507,0.111854 -0.30343,0.178887 -0.24156,0.212601 -0.17254,0.146759 -0.18127,0.162624 -0.77238,0.583068 -0.67807,0.691392 -0.0984,0.07774 -0.29629,0.613292 -1.87875,1.967954 -0.9427,1.094581 -0.56998,0.742915 -0.55788,0.827163 -0.51045,0.626541 -0.41159,0.536581 -0.20785,-0.115027 -0.6687,-0.481051 -0.80999,-0.590644 -0.20348,-0.08091 -0.47466,-0.400255 -0.47205,-0.35341 -1.48642,-0.135256 -0.40744,-0.05315 -0.33556,0.05275 -0.21339,0.159848 -0.26179,0.07814 -0.0278,0.05632 -0.27527,0.495845 -0.22529,0.427663 -0.25346,0.382365 -0.48065,-0.377209 -0.72705,-0.636377 -0.33596,-0.303036 -0.94346,-0.728756 z"
       id="path102"
       style="fill:#fff6d5;fill-opacity:1;stroke:#000000;stroke-width:0.396875;stroke-miterlimit:4;stroke-dasharray:none;stroke-opacity:1"
       inkscape:connector-curvature="0">
      <title
         id="title2815">15C Pian Due Torri</title>
    </path>
    <path
       d="m 196.23059,97.847006 -0.65391,1.092479 -0.90653,1.317415 -0.96016,1.31936 -1.01208,1.1801 -0.0397,0.0436 -1.76709,2.15695 -1.78446,2.11361 -2.06327,2.08738 -1.43974,1.34792 -1.05377,0.90891 -0.19554,0.11027 -0.21499,0.12058 -3.31039,2.20931 -3.34273,2.53004 -1.68582,1.07589 -1.30512,0.95144 -1.11695,0.59957 -1.16645,0.64982 -0.93299,0.35103 -0.49081,0.0928 -0.41822,0.12495 -1.04956,0.2245 -0.32168,0.0278 -0.32565,0.0317 -0.80094,0.0924 -0.83379,-0.0159 -0.47308,-0.008 -0.25702,-0.0809 -0.32129,-0.0829 -0.31612,-0.0758 -0.28757,-0.0821 -0.31057,-0.11464 -0.51699,-0.24076 -0.39942,-0.28003 -0.44043,-0.29391 -0.46134,-0.48748 -0.46114,-0.4964 -0.40434,-0.56272 -0.48339,-0.69012 -0.45075,-0.84291 -0.77849,-2.22193 -0.31058,-0.57236 -0.88689,-1.45842 -0.43782,-0.69413 -0.90483,-1.34633 -0.52662,-0.53952 -0.41842,-0.40215 -0.88,-0.88615 -0.45396,-0.33001 -0.40164,-0.20308 -0.67763,-0.40827 -0.28082,-0.044 -0.29511,-0.0551 -0.38752,-0.0492 -0.37959,-0.0488 -0.39069,0.008 -0.37602,0.0512 -0.31494,0.0746 -0.48958,0.14438 -0.32604,0.12772 -0.52147,0.2721 -0.35777,0.16104 -0.74681,0.60678 -0.58191,0.54396 -0.75414,0.762 -0.40783,0.49188 -0.44778,0.66588 -0.25107,0.48224 -0.1781,0.36293 -0.32525,0.59085 -0.2364,0.66323 -0.26813,0.64974 -0.33953,1.06059 -0.15786,0.80146 -1.33693,-0.98221 -0.22411,-0.19793 -0.22807,-0.19277 -0.12375,-0.10749 -0.0678,-0.0952 -0.0599,-0.14835 -0.11503,-0.18246 -0.10154,-0.18523 -0.0956,-0.29431 -0.0357,-0.11185 -0.092,-0.27964 -0.0555,-0.19316 -0.008,-0.0468 -0.0714,-0.33834 -0.0651,-0.40949 -0.0678,-0.36849 -0.0754,-0.20427 -0.0535,-0.21974 -0.0198,-0.21141 -0.0456,-0.17294 -0.16183,-0.26218 -0.10471,-0.15866 -0.16223,-0.16738 -0.17611,-0.23402 -0.24275,-0.19872 -0.10114,-0.15152 -0.23482,-0.236 -0.14953,-0.18127 -0.20348,-0.13129 -0.10789,-0.14279 -0.11741,-0.13922 -0.0789,-0.0916 -0.0785,-0.0579 -0.14518,-0.54959 -0.0595,-0.20189 -0.19753,-0.67458 -0.21181,-0.82867 -0.19634,-0.80312 -0.23997,-0.82415 -0.0583,-0.15192 -0.17373,-0.44864 -0.27725,-1.1398 -0.30026,-0.37721 -0.33834,-0.52682 -0.20744,-0.3907 -0.0988,-0.40152 -0.1186,-0.40763 -0.13287,-0.29193 -0.0516,-0.32327 -0.25425,-0.531424 -0.22767,-0.432264 -0.38911,-0.798327 -0.73819,-1.187673 -0.0686,-0.205859 -0.32486,-0.492434 -0.29351,-0.46467 -0.26575,-0.503223 -0.19912,-0.402793 -0.17611,-0.278841 -0.27765,-0.36769 -0.38673,-0.47645 -0.45713,-0.621582 -0.46146,-0.433969 -0.23918,-0.264562 -0.1654,-0.273288 -0.3066,-0.386332 -0.25822,-0.392282 -0.28796,-0.732722 -0.14637,-0.372846 -0.2713,-0.581918 -0.6031,-1.183786 -0.0198,-0.168574 0.36848,-0.342701 0.45075,-0.318903 0.54884,-0.381969 0.47446,-0.353807 0.54698,-0.362533 0.58477,-0.41854 0.66398,-0.56629 0.43397,-0.428456 0.42366,-0.39839 0.36253,-0.446661 0.24632,-0.323266 0.19197,-0.249886 0.30304,-0.382366 0.41977,-0.714984 0.1896,-0.348214 0.18285,-0.253655 0.44139,-0.408556 0.1055,-0.08984 0.22728,-0.09143 0.24076,-0.09111 0.31811,-0.09055 0.28479,-0.08972 0.48804,-0.04966 0.7537,-0.03986 0.97158,0.0044 0.77715,-0.06414 0.77647,-0.08575 0.48811,-0.05323 0.34231,-0.08984 0.58306,-0.277374 0.2725,-0.172421 0.17452,-0.112727 0.0397,-0.03292 0.0535,-0.04312 0.12177,-0.09825 0.52849,-0.420308 0.13169,-0.105032 0.71816,-0.636178 0.40339,-0.349048 0.17849,-0.155524 0.34429,-0.377487 0.38633,-0.499646 0.20586,-0.177974 0.35222,-0.420202 0.29748,-0.243064 0.2487,-0.230371 0.21617,-0.120382 0.52663,-0.355989 0.42651,-0.273288 0.33398,-0.13474 0.22767,-0.05394 0.36015,-0.110703 0.24791,-0.06223 0.25068,-0.02102 0.35539,-0.09309 0.29867,-0.02142 0.52766,-0.07893 0.58957,-0.0052 0.72447,-0.0031 1.14567,0.0808 0.85049,0.02737 0.46574,0.06759 0.35619,-0.06969 0.13327,0.01825 0.70765,-0.06465 0.40847,-0.02697 0.29748,-0.03054 0.18127,-0.03014 0.13684,-0.02102 0.51738,-0.138231 0.47308,-0.130654 0.53797,-0.158976 0.46709,-0.111258 0.69611,-0.08103 0.71825,-0.02142 0.56712,-0.01507 0.31731,-0.01745 0.54353,-0.03213 0.5668,-0.0491 0.52988,-0.06644 0.30145,-0.01785 0.40783,-0.0075 0.26536,-0.06537 0.0579,-0.0123 0.10749,-0.02737 0.16778,-0.113044 0.14041,-0.142316 0.20507,-0.153026 0.0829,-0.09226 0.20388,-0.110109 0.14834,-0.185035 0.2134,-0.292168 0.6071,-0.907885 0.36571,-0.607529 0.0539,-0.103881 0.11741,-0.132321 0.21538,-0.05962 0.24751,-0.0123 0.0761,4.2e-4 0.69147,0.07072 0.7382,-0.01745 0.22291,0.01071 0.58969,0.03015 0.86465,-0.04399 0.19832,0.03094 0.18087,0.03411 0.45388,0.104714 0.40772,0.178411 0.59988,1.485506 0.35579,0.797062 0.2483,0.454309 0.12217,0.250283 0.2955,0.798949 0.12177,0.393353 0.13486,0.227397 0.20149,0.225968 0.18801,0.325527 0.10154,0.27297 0.0777,0.268648 0.11344,0.673646 0.0857,0.34758 0.33556,1.793941 0.50446,2.313839 0.35579,1.59978 0.26495,1.060707 0.0964,0.265752 0.17294,0.210619 0.0599,0.05712 0.0623,0.06783 0.0198,0.04522 0.0484,0.07655 0.142,0.349444 -0.0159,0.353411 0.0159,0.29193 0.0119,0.245127 -0.0504,0.209428 0.008,0.112647 0.008,0.05394 0.0317,0.09758 0.0397,0.957421 0.16025,0.821729 0.0932,0.326439 0.17452,0.553993 0.30463,0.858142 0.27249,0.594411 0.12415,0.3665 0.18484,0.57216 0.0654,0.270116 0.24632,0.801063 0.19198,0.466891 0.14437,0.3546 0.2249,0.43036 0.17492,0.278841 0.15549,0.213792 0.20744,0.174127 0.21498,0.185233 0.41466,0.348254 1.1674,0.749738 1.25074,0.687941 0.41069,0.262182 0.29113,0.18563 0.21102,0.184837 0.21934,0.217361 0.32168,0.324059 1.09867,-1.976561 0.93473,-1.677569 0.24315,0.187613 0.94346,0.728755 0.33595,0.303037 0.72709,0.636377 0.48062,0.377209 0.25345,-0.382366 0.2253,-0.427622 0.27527,-0.495886 0.0317,-0.05632 0.26179,-0.07814 0.21339,-0.159848 0.33556,-0.05275 0.40744,0.05315 1.48642,0.135255 0.47205,0.353411 0.47467,0.400254 0.20347,0.08092 0.80999,0.590644 0.66871,0.48109 z"
       id="path104"
       style="fill:#fff6d5;fill-opacity:1;stroke:#000000;stroke-width:0.396875;stroke-miterlimit:4;stroke-dasharray:none;stroke-opacity:1"
       inkscape:connector-curvature="0">
      <title
         id="title2881">15D Trullo</title>
    </path>
    <path
       d="m 105.25576,132.40992 -0.74501,-2.76667 -0.42556,-2.54063 -0.47771,-2.58506 -0.0424,-0.14239 -0.62506,-3.18843 -0.10178,-0.61091 -0.9402,-4.60668 -1.19523,-5.84611 -1.118824,-5.53819 -0.372132,-1.78458 -1.302692,-5.815569 -0.429749,-1.952643 -0.472678,-2.300818 -0.251354,-1.225037 -1.536824,-5.493769 -1.405538,-4.794349 -1.457484,-4.930137 -1.361983,-4.594622 0.378836,-0.108205 0.43521,-0.15838 0.359003,-0.201813 0.571431,-0.416949 0.24346,-0.140928 0.540996,-0.340956 0.424608,-0.247982 0.494505,-0.217322 0.766628,-0.2483 0.585701,-0.27182 0.632296,-0.223748 0.728323,-0.215536 0.182496,-0.02499 0.237908,0.04125 0.514444,0.224779 2.285923,0.597037 0.43038,0.04177 0.14914,-0.0242 0.14525,-0.07251 0.16164,-0.129068 0.10884,-0.105785 0.11018,-0.153938 0.0689,-0.151637 0.10055,-0.275788 0.14609,-0.231521 0.0842,-0.217322 0.22657,-0.243381 0.41621,-0.369832 0.34937,-0.237828 0.12331,-0.144617 0.17734,-0.203796 0.0756,-0.158578 0.0502,-0.196895 0.17746,-0.210936 0.21062,-0.115146 0.22835,-0.0825 0.24818,-0.02816 0.12038,0.08227 0.13696,0.06676 0.13569,0.107768 0.54646,0.667347 0.1911,0.175674 0.11019,0.06771 0.13716,0.01666 0.15691,0.02459 0.11388,-0.0071 0.27757,-0.07556 0.27686,-0.136327 0.48883,-0.255122 2.41511,-1.190398 2.46864,-1.151254 0.95154,-0.44308 0.34369,-0.182615 0.26647,-0.149218 0.26773,-0.234972 0.48569,-0.500066 0.71815,-0.723702 0.2527,0.129306 0.28011,0.06211 0.36491,0.04323 0.43721,0.03649 0.27067,-0.02221 0.15188,0.01547 0.66493,0.592207 0.4032,0.541416 0.14264,0.233068 0.1932,0.372331 0.19194,0.368681 0.17746,0.184162 0.12593,0.298793 0.0573,0.403935 0.051,0.300022 0.001,0.489884 -0.0167,0.555374 -0.021,0.555371 -0.0441,1.103398 -0.0202,1.372268 0.006,0.629464 0.0619,0.291454 0.2143,0.383675 0.11428,0.151875 0.0854,0.181346 0.16191,0.256907 2.04749,2.827447 1.03381,1.302268 2.1731,2.741807 2.15057,2.785784 0.92696,1.08094 0.46681,0.432371 0.52766,0.496837 0.19515,0.272098 0.11502,0.169764 0.19,0.391885 0.0317,0.276065 0.142,0.388712 0.18602,0.79214 0.16104,0.727049 0.0417,0.348255 0.0976,0.439085 -0.004,0.273289 0.18047,0.271701 0.17413,0.259009 0.22965,0.178491 0.3439,0.02777 0.30938,0.07536 0.37562,-0.08687 0.30105,-0.06069 0.0198,0.168574 0.60313,1.183787 0.27131,0.581918 0.14636,0.372846 0.28797,0.732722 0.25821,0.391885 0.30661,0.386332 0.1654,0.273288 0.23918,0.264562 0.46145,0.433969 0.45714,0.621582 0.38672,0.47645 0.27766,0.36769 0.17611,0.278841 0.19911,0.402793 0.26575,0.503223 0.29352,0.464709 0.32485,0.492395 0.0686,0.205859 0.7382,1.187673 0.38911,0.798328 0.22767,0.432263 0.25425,0.531427 0.0516,0.32327 0.13288,0.29193 0.1186,0.40763 0.0988,0.40152 0.20745,0.3907 0.33833,0.52682 0.30026,0.37721 0.27726,1.1398 0.17373,0.44864 0.0583,0.15192 0.23997,0.82415 0.19634,0.80312 0.2118,0.82867 0.19753,0.67458 0.0595,0.20189 0.14517,0.54959 0.0785,0.0579 0.0789,0.0916 0.11741,0.13922 0.10788,0.14279 0.20309,0.13129 0.14953,0.18127 0.23482,0.236 0.10114,0.15152 0.24275,0.19872 0.17611,0.23402 0.16222,0.16738 0.10472,0.15866 0.16183,0.26218 0.0456,0.17294 0.0198,0.21141 0.0535,0.21974 0.0754,0.20427 0.0678,0.36849 0.0651,0.40949 0.0714,0.33834 0.008,0.0468 0.0555,0.19316 0.092,0.27964 0.0357,0.11185 0.0956,0.29431 0.10154,0.18523 0.11503,0.18246 0.0599,0.14835 0.0678,0.0952 0.12375,0.10749 0.22807,0.19277 0.22411,0.19793 1.33689,0.98221 -0.0718,1.85689 0.0908,3.88173 0.008,3.12667 0.0238,2.8251 -0.0397,2.78925 -0.18087,1.88041 -0.28837,1.98632 -0.24155,1.35843 -0.27607,1.04639 -0.15112,0.62106 -2.64308,10.25636 -0.93462,4.44433 -0.0317,0.39228 -3.79843,-0.92938 -7.24824,-1.61093 -4.687,-1.12639 -2.98495,-0.71226 -1.67221,-0.51349 -1.34709,-0.47518 -0.66808,-0.28479 -0.75393,-0.3197 -1.51667,-0.75025 -1.9012,-1.20878 -1.12638,-0.69381 -0.81585,-0.61464 -0.87472,-0.65926 -0.7405,-0.76255 -0.24147,-0.41497 -0.46344,-0.37325 -0.64962,-0.71677 -0.97263,-1.1736 -0.57343,-0.71638 -0.2698,-0.49259 -0.23298,-0.38792 -0.7998,-1.31674 -0.98071,-1.87633 -0.54645,-1.20362 z"
       id="path106"
       style="fill:#fff6d5;fill-opacity:1;stroke:#000000;stroke-width:0.396875;stroke-miterlimit:4;stroke-dasharray:none;stroke-opacity:1"
       inkscape:connector-curvature="0">
      <title
         id="title2945">15E Magliana</title>
    </path>
    <path
       d="m 131.4761,88.528273 -0.30106,0.06069 -0.37562,0.08687 -0.30938,-0.07536 -0.34389,-0.02776 -0.22966,-0.17849 -0.17413,-0.259009 -0.18047,-0.271702 0.004,-0.273288 -0.0976,-0.439086 -0.0417,-0.348254 -0.16103,-0.72709 -0.18603,-0.7921 -0.142,-0.388711 -0.0317,-0.276065 -0.18999,-0.391885 -0.11503,-0.169764 -0.19515,-0.272099 -0.52766,-0.496837 -0.46681,-0.432371 -0.92696,-1.08094 -2.15056,-2.785783 -2.1731,-2.741808 -1.03382,-1.302268 -2.04749,-2.827447 -0.16195,-0.256907 -0.0854,-0.181346 -0.11427,-0.151875 -0.21431,-0.383675 -0.0619,-0.291454 -0.006,-0.629464 0.0202,-1.372268 0.0441,-1.103398 0.021,-0.55537 0.0167,-0.555374 -0.001,-0.489885 -0.051,-0.300022 -0.0573,-0.403935 -0.12594,-0.298792 -0.17746,-0.184163 -0.19193,-0.368681 -0.19321,-0.37233 -0.14263,-0.233069 -0.4032,-0.541416 -0.66494,-0.592207 0.34925,-0.411281 0.67165,-0.512346 0.47404,-0.339488 0.49786,-0.287012 0.95962,-0.44644 2.61379,-0.655487 0.21299,-0.01666 0.24116,-0.15723 0.18365,-0.1017 0.32128,-0.410341 0.5093,-0.93202 1.01461,-2.042872 1.13068,-1.504918 1.09458,-1.375524 0.98566,-0.953431 1.41277,-1.029829 1.1141,-0.783211 0.378,-0.347897 0.96623,-0.932548 0.0635,-0.06422 0.31573,-0.415898 0.50398,-0.447804 0.26376,-0.06172 0.4076,-0.134343 0.58005,-0.268449 0.53008,-0.296889 0.5334,-0.142951 0.50398,-0.138548 0.41652,-0.07683 0.52063,-0.02896 0.29907,-0.0357 0.27924,-0.0044 0.25782,0.05248 0.23997,0.0591 0.30304,0.09309 0.24512,0.112925 0.29035,0.158896 0.25861,0.197291 0.32208,0.215259 0.42472,0.316721 0.23799,0.175159 0.30185,0.27547 0.29748,0.325328 0.21657,0.267497 0.38474,0.444234 0.592,0.8848 0.0761,0.138111 0.17215,0.142832 0.18087,0.121612 0.22093,0.07996 0.33873,0.02261 0.23958,-0.01428 0.31652,-0.03173 0.34548,-0.01983 0.52492,-0.03609 0.42262,0.07524 0.70535,0.139262 0.26298,-0.03491 0.32485,0.174325 0.51707,0.313984 0.27527,0.131726 0.62202,0.333301 0.34349,0.219424 -0.4795,0.881225 0.0726,0.561669 0.86747,0.61236 0.0409,-0.07199 0.72979,-1.029202 0.43984,-0.583813 0.73851,-1.09689 0.31137,-0.48401 0.31216,-0.471416 1.24455,-1.884301 0.56546,0.571117 0.71308,0.727483 0.4028,0.469734 0.53059,0.573636 0.16381,0.281975 0.22133,0.235488 0.1424,0.28491 0.33952,1.018389 0.0476,0.240962 0.17532,0.251988 0.10749,0.07651 0.23719,0.155445 0.66252,0.318427 1.24269,0.539631 0.76869,0.344764 0.19714,0.06497 0.20665,0.0616 0.13724,0.100629 0.0238,0.143665 0.042,0.247982 0.11503,0.31085 0.0662,0.380938 0.11939,0.346866 0.26178,0.449379 0.13486,0.31327 0.16421,0.0119 0.13843,0.0595 0.25544,0.129306 0.81249,0.531968 1.00561,0.557473 0.18682,0.102096 0.26655,0.02221 0.22093,0.07627 0.13446,0.107768 0.16977,0.135494 0.30184,0.223629 0.32525,0.297523 0.6478,0.54666 0.42957,0.468687 0.40624,0.491249 0.30661,0.380937 0.19872,0.552959 0.15151,0.692748 0.0357,0.413903 0.12098,0.02499 0.11503,-0.01269 0.42913,0.04145 0.81752,0.0083 -0.12375,1.188617 0.0504,0.330366 0.0861,0.565655 0.0528,0.825711 0.0405,0.485585 0.0401,0.312199 0.0405,0.29792 -0.0278,0.851949 -0.25544,2.907831 -0.2015,2.31783 0.1777,0.08932 -0.0829,0.09226 -0.20506,0.153026 -0.14042,0.142316 -0.16778,0.113044 -0.10749,0.02737 -0.0579,0.01269 -0.26535,0.06537 -0.40783,0.0071 -0.30145,0.01785 -0.52988,0.06644 -0.56681,0.0491 -0.54352,0.03213 -0.31731,0.01745 -0.56713,0.01507 -0.71824,0.02142 -0.69611,0.08103 -0.46709,0.111259 -0.53797,0.158976 -0.47308,0.130654 -0.51738,0.138231 -0.13685,0.02102 -0.18126,0.03015 -0.29749,0.03054 -0.40846,0.02697 -0.70765,0.06465 -0.13328,-0.01825 -0.35618,0.06969 -0.46574,-0.06759 -0.85049,-0.02737 -1.14567,-0.0808 -0.72443,0.0032 -0.58961,0.0052 -0.52766,0.07893 -0.29867,0.02142 -0.3554,0.09309 -0.25068,0.02102 -0.2479,0.06223 -0.36015,0.110703 -0.22768,0.05394 -0.33397,0.13474 -0.42652,0.273288 -0.52658,0.355989 -0.21617,0.120382 -0.2487,0.230371 -0.29748,0.243064 -0.35222,0.420202 -0.20586,0.177974 -0.38633,0.499646 -0.34429,0.377487 -0.17849,0.155524 -0.40343,0.349047 -0.71812,0.636183 -0.13129,0.105071 -0.52853,0.420305 -0.12177,0.09825 -0.0536,0.04312 -0.0397,0.03292 -0.17453,0.112726 -0.27249,0.172422 -0.58307,0.277373 -0.34231,0.08984 -0.48811,0.05319 -0.77647,0.08575 -0.77714,0.06414 -0.97159,-0.0044 -0.7537,0.03986 -0.48799,0.04966 -0.28479,0.08972 -0.31811,0.09055 -0.24077,0.09107 -0.22727,0.09143 -0.10551,0.08984 -0.44143,0.408552 -0.18285,0.253654 -0.1896,0.348215 -0.41977,0.714968 -0.30303,0.382365 -0.19198,0.249887 -0.24632,0.323265 -0.36253,0.446662 -0.42366,0.39839 -0.43396,0.428456 -0.66399,0.566289 -0.58477,0.41854 -0.54697,0.362533 -0.47443,0.353808 -0.54888,0.381969 -0.45075,0.318902 z"
       id="path108"
       style="opacity:0.98;fill:#fff6d5;fill-opacity:1;stroke:#000000;stroke-width:0.396875;stroke-miterlimit:4;stroke-dasharray:none;stroke-opacity:1"
       inkscape:connector-curvature="0">
      <title
         id="title2859">15F Corviale</title>
    </path>
    <path
       sodipodi:nodetypes="cccccccccccccccccccccccccccccccccccccccccccccccccccccccccccccccccccccccccccccccccccccccccccccccccccccccccccccccccccccccccccccccccccccccccccccccccccccccccccccccccccccccccccccccccccccccccccccccccccccccccccccccccccccccccccccccccccccccccccccccccccccccccccccccccccccccccccccccccccccccccccccccccccccccccccccccccccccccccccccccccccccccccccccccccccccccccccccccccccccccccccccccccccccccccccccccccccccccccccccccc"
       d="m -4.7440329,73.024442 0.4630193,0.109355 0.528085,0.08092 0.554323,0.01547 0.6305146,0.09666 1.1051833,-0.16191 0.65150105,-0.147671 0.76799163,-0.278008 0.52011242,-0.217957 0.8391418,-0.418837 0.9005384,-0.416949 1.0572251,-0.765997 1.1933337,-0.801051 0.9120847,-0.656118 1.4028058,-1.093114 0.1537396,-0.258057 0.2903836,-0.139262 0.4208322,-0.07798 0.4125424,0.01626 0.3728858,-0.04375 0.2941518,0.03966 0.4943979,0.174523 0.3302465,0.294588 0.7701973,0.848273 0.514547,0.212721 0.46365,-0.03729 0.7533,-0.409076 0.712267,-0.46764 0.509613,-0.05383 0.339409,0.130457 0.271702,0.373203 0.451267,0.78636 0.391449,0.777333 0.46858,0.788768 0.426921,0.41013 0.336473,0.269719 0.45872,0.4648 0.117843,0.2057 0.180315,0.477608 0.09833,0.44644 0.269203,0.626945 0.157111,0.53407 0.190152,0.415267 0.350515,1.190819 0.250084,1.282436 0.0591,0.849217 -0.150487,0.665776 -0.17377,1.245913 0.0021,0.572164 0.252386,0.992889 0.156476,0.51266 1.006113,-0.07243 2.602232,-0.244214 4.394492,-0.32271 1.7676,-0.227516 0.417996,0.01309 0.48086,0.140095 0.235607,0.375583 0.0639,0.311287 0.273487,0.444654 0.473201,1.893638 0.329731,1.433237 0.211451,0.120976 1.099936,-0.335958 0.349364,0.07179 0.958782,0.50711 0.437206,0.124547 0.416108,0.03173 0.478029,-0.06743 0.670496,0.103127 0.972109,0.03173 0.56272,0.04601 0.699884,-0.112251 0.711739,-0.232037 0.337505,-0.323662 0.414954,-0.274875 0.41401,-0.335562 0.268251,-0.329611 0.486528,-0.68929 0.764212,-0.720029 0.145767,-0.260199 0.459767,-0.42913 0.914496,-0.609834 0.556211,-0.392162 0.444024,-0.527879 0.33227,-0.629777 0.526197,-0.630828 0.498285,-0.250917 0.308946,-0.09055 0.340758,-0.171787 0.532599,-0.103287 0.799898,-0.01983 0.369831,0.01507 0.712053,0.143546 0.326994,0.185352 0.82802,0.370545 0.702609,0.363208 0.684037,0.398271 1.13488,0.605328 1.381296,0.679099 2.550597,1.206744 1.278973,0.527459 0.465435,0.164607 0.584964,0.146759 1.191239,0.12415 0.296572,-0.08211 0.925305,-0.09678 0.368879,-0.08528 0.884062,-0.36055 0.503426,-0.157865 0.754874,-0.291137 0.385063,-0.09202 0.635239,-0.268132 0.925725,-0.459533 0.618024,-0.36174 0.219424,-0.09341 0.198243,-0.145886 0.0952,-0.182933 0.287131,-0.339805 0.367611,-0.69474 0.598402,-0.769986 0.640482,-0.786567 0.531445,-0.375186 0.199393,-0.226246 0.664198,-0.560515 0.507622,-0.381255 0.535538,-0.248101 0.445285,-0.265197 1.156291,-0.395336 1.108856,-0.418206 1.753428,-0.691594 1.108646,-0.235925 0.64122,-0.118081 0.799581,-0.227515 0.694739,-0.253972 0.904842,-0.217123 0.816267,-0.466586 1.116306,-0.74879 2.149077,-0.826235 1.395146,-0.473935 0.705758,-0.262578 0.708067,0.05382 0.311049,-0.03332 1.73496,0.169288 1.292721,-0.0075 0.619809,-0.03292 0.289947,-0.08583 0.50038,-0.05981 1.05208,-0.314618 2.819471,9.524755 1.405534,4.794345 1.536825,5.493769 0.724019,3.525855 0.429753,1.952642 1.302689,5.815568 0.372132,1.78459 1.118825,5.53819 2.13543,10.45278 0.10178,0.61091 0.62505,3.18843 0.0424,0.1424 0.47771,2.58501 0.42555,2.54063 0.74501,2.76672 0.65685,1.44287 0.98072,1.87633 1.03277,1.70462 0.2698,0.49263 0.57342,0.71635 0.97263,1.17363 0.64962,0.71677 0.46344,0.37325 0.24147,0.41493 0.7405,0.76255 1.69057,1.27394 1.12638,0.69377 1.90119,1.20878 1.51668,0.75025 1.42201,0.60429 1.34709,0.47518 1.67218,0.5135 2.98499,0.71225 4.68695,1.12639 7.24829,1.61094 3.79843,0.92938 -1.03247,4.80253 -0.50838,2.22633 -0.35539,2.16838 -0.3197,1.55623 -0.42227,1.59075 -0.25107,0.61456 -0.21141,0.35301 -0.95933,1.11874 -1.03885,0.92152 -1.49127,0.88115 -1.44521,0.73217 -1.19176,0.48612 -1.1417,0.29075 -1.21885,0.22767 -1.41436,0.10551 -1.22984,0.0198 -1.40051,-0.18008 -0.97567,-0.15826 -0.60187,-0.13605 -0.53166,-0.0678 -0.79686,-0.23125 -1.58424,-0.64855 -2.7774,-1.08863 -0.60343,-0.21657 -0.47005,-0.20189 -1.08661,-0.33874 -1.60011,-0.43099 -0.85583,-0.008 -1.29912,-0.12177 -0.93737,0.20943 -0.52599,0.14319 -0.82015,0.2721 -0.57405,0.27051 -2.51387,1.60411 -1.2922,0.92601 -0.99939,0.75446 -1.40995,1.14412 -1.45412,0.83894 -0.38388,0.17611 -0.39252,0.10591 -1.535873,0.22688 -0.710272,0.0428 -0.500277,-0.003 -0.70765,-0.0877 -0.87409,-0.15707 -0.536795,-0.16103 -0.77408,-0.28123 -1.215586,-0.67167 -1.482146,-0.96393 -0.468057,-0.40037 -0.695687,-0.52179 -1.290829,-1.05468 -1.053445,-0.80975 -0.755819,-0.43774 -5.454021,-3.44327 -2.616713,-1.52086 -3.045312,-1.7164 -2.804462,-1.28001 -2.120007,-0.8318 -1.173398,-0.38276 -1.810101,-0.422 -1.124912,-0.0416 -0.672912,-0.0833 -1.263651,-0.0119 -1.353796,0.004 -1.390217,0.0611 -0.480543,0.0532 -1.500618,0.12733 -1.409525,0.16381 -2.344381,0.20665 -1.386226,0.14517 -0.769777,0.0639 -1.041058,-0.0278 -0.803673,-0.0516 -0.636707,-0.0857 -0.49293,-0.1063 -0.865487,-0.25703 -0.360074,-0.165 -0.64636,-0.20943 -0.590319,-0.3308 -0.963403,-0.63931 -1.580165,-1.10886 -1.684273,-1.16217 -0.689385,-0.37166 -0.490518,-0.18484 -0.8106,-0.38633 -1.081146,-0.2479 -0.356624,-0.0159 -0.773973,0.071 -0.416005,0.0873 -0.407608,0.16263 -0.391766,0.21141 -0.464594,0.31811 -0.173889,0.21458 -0.236559,0.6434 -0.118161,0.70777 -0.199195,1.98359 -0.592309,5.5681 -0.169487,1.19604 -0.376138,1.56516 -0.170756,0.50239 -0.239176,0.42524 -0.11356,0.29511 -0.246634,0.31969 -0.652445,0.68045 -0.600393,0.55351 -0.820361,0.57173 -0.415584,0.15707 -0.419781,0.25147 -0.417056,0.16421 -1.109273,0.35183 -0.742702,0.13763 -0.214386,0.0119 -0.962459,-0.0654 -4.900646,-0.19872 -0.206096,0.003 -0.903161,-0.0801 -2.62532,-0.32485 -1.247068,-0.20507 -2.19924,-0.4331 -4.900539,-1.14654 -2.04896,-0.40172 -2.3260128,-0.48014 -2.5550074,-0.43194 -1.7929932,-0.32763 -1.5588658,-2.29757 -4.40287645,-5.92365 -0.27213801,-0.3661 -2.66331134,-3.84111 -1.9917599,-2.8566 -2.8655406,-4.20697 0.5020611,-0.22926 0.5362717,-0.2959 0.2004643,-0.0357 0.266347,-0.21855 0.3039093,-0.13883 0.4091708,-1.11254 0.267299,-0.80503 0.095829,-0.19714 0.045971,-0.52587 -0.1483055,-0.8558 -0.1875337,-0.45999 -0.3398056,-0.63816 -0.6261038,-0.89027 -0.2953021,-0.51873 0.1672651,-0.1305 -3.6504251,-5.22389 -2.501171,-3.52355 -1.368067,-1.95943 -2.452673,-3.10783 -2.798825,-3.85824 1.332869,1.94308 -3.270134,-4.58577 -1.149409,-2.0597 -2.997033,-4.61056 -1.400521,-1.80977 0.755596,-2.85449 -1.175381,-0.33596 -1.9123,-2.68485 -2.029802,-2.41545 -2.270637,-3.631087 -1.678181,-2.022452 -1.422427,-1.600858 0.66651,-0.225295 1.296394,-0.583186 1.356422,-0.743749 1.087973,-0.627056 0.583389,-0.35341 1.601683,-1.397579 0.431534,-0.411796 0.465959,-0.36412 2.394647,-1.65857 0.338021,-0.629357 0.307797,-0.943142 0.308748,-0.75894 0.779431,-1.146423 0.549603,-1.105409 0.235726,-0.609326 0.232235,-0.325248 0.28253,-0.269719 0.911871,-0.30026 0.972847,-0.287449 0.446229,-0.24703 0.350396,-0.344645 0.174722,-0.241279 0.750464,-1.331445 0.249886,-0.294271 0.763903,-0.994884 0.611201,-0.731683 0.181029,-0.273169 0.26488,-0.556525 0.375702,-0.470889 0.656328,-0.553168 0.473304,-0.171073 0.466907,-0.09793 0.465538,-0.139064 1.147997,-0.205263 1.190085,-0.184162 0.36646,-0.09048 0.934856,-0.05815 0.169169,0.01785 0.443501,-0.116614 0.413696,-0.192571 1.177175,-0.708491 0.5834956,-0.403515 0.5622995,-0.329215 0.544875,-0.238542 0.4936641,-0.352736 0.309264,-0.270988 0.22343,-0.262975 0.321441,-0.488627 0.1314877,-0.146084 0.4263972,-0.04018 0.4934539,0.29082 z"
       id="path110"
       style="fill:#fff6d5;fill-opacity:1;stroke:#000000;stroke-width:0.396875;stroke-miterlimit:4;stroke-dasharray:none;stroke-opacity:1"
       inkscape:connector-curvature="0">
      <title
         id="title2903">15G Ponte Galeria</title>
    </path>
    <text
       id="text981-1-6-0-4-58-9-5-7-7-6-1"
       y="53.013042"
       x="207.52901"
       style="font-style:normal;font-variant:normal;font-weight:normal;font-stretch:normal;font-size:6.29675px;line-height:1.25;font-family:'Times New Roman';-inkscape-font-specification:'Times New Roman, Normal';font-variant-ligatures:normal;font-variant-caps:normal;font-variant-numeric:normal;font-feature-settings:normal;text-align:start;letter-spacing:0px;word-spacing:0px;writing-mode:lr-tb;text-anchor:start;fill:#000000;fill-opacity:1;stroke:none;stroke-width:0.297656;stroke-miterlimit:4;stroke-dasharray:none"
       xml:space="preserve"><tspan
         style="stroke-width:0.297656;stroke-miterlimit:4;stroke-dasharray:none"
         y="53.013042"
         x="207.52901"
         id="tspan2811"
         sodipodi:role="line">15A</tspan></text>
    <text
       id="text981-1-6-0-4-58-9-5-7-7-6-1-1"
       y="84.720406"
       x="195.96956"
       style="font-style:normal;font-variant:normal;font-weight:normal;font-stretch:normal;font-size:6.29675px;line-height:1.25;font-family:'Times New Roman';-inkscape-font-specification:'Times New Roman, Normal';font-variant-ligatures:normal;font-variant-caps:normal;font-variant-numeric:normal;font-feature-settings:normal;text-align:start;letter-spacing:0px;word-spacing:0px;writing-mode:lr-tb;text-anchor:start;fill:#000000;fill-opacity:1;stroke:none;stroke-width:0.297656;stroke-miterlimit:4;stroke-dasharray:none"
       xml:space="preserve"><tspan
         style="stroke-width:0.297656;stroke-miterlimit:4;stroke-dasharray:none"
         id="tspan2835"
         sodipodi:role="line"
         x="195.96956"
         y="84.720406">15C</tspan></text>
    <text
       id="text981-1-6-0-4-58-9-5-7-7-6-1-1-2"
       y="76.478844"
       x="179.63695"
       style="font-style:normal;font-variant:normal;font-weight:normal;font-stretch:normal;font-size:6.29675px;line-height:1.25;font-family:'Times New Roman';-inkscape-font-specification:'Times New Roman, Normal';font-variant-ligatures:normal;font-variant-caps:normal;font-variant-numeric:normal;font-feature-settings:normal;text-align:start;letter-spacing:0px;word-spacing:0px;writing-mode:lr-tb;text-anchor:start;fill:#000000;fill-opacity:1;stroke:none;stroke-width:0.297656;stroke-miterlimit:4;stroke-dasharray:none"
       xml:space="preserve"><tspan
         style="stroke-width:0.297656;stroke-miterlimit:4;stroke-dasharray:none"
         y="76.478844"
         x="179.63695"
         id="tspan2857"
         sodipodi:role="line">15B</tspan></text>
    <text
       id="text981-1-6-0-4-58-9-5-7-7-6-1-1-2-2"
       y="68.835701"
       x="136.77161"
       style="font-style:normal;font-variant:normal;font-weight:normal;font-stretch:normal;font-size:6.29675px;line-height:1.25;font-family:'Times New Roman';-inkscape-font-specification:'Times New Roman, Normal';font-variant-ligatures:normal;font-variant-caps:normal;font-variant-numeric:normal;font-feature-settings:normal;text-align:start;letter-spacing:0px;word-spacing:0px;writing-mode:lr-tb;text-anchor:start;fill:#000000;fill-opacity:1;stroke:none;stroke-width:0.297656;stroke-miterlimit:4;stroke-dasharray:none"
       xml:space="preserve"><tspan
         style="stroke-width:0.297656;stroke-miterlimit:4;stroke-dasharray:none"
         y="68.835701"
         x="136.77161"
         id="tspan2879"
         sodipodi:role="line">15F</tspan></text>
    <text
       id="text981-1-6-0-4-58-9-5-7-7-6-1-1-2-2-4"
       y="94.658928"
       x="154.381"
       style="font-style:normal;font-variant:normal;font-weight:normal;font-stretch:normal;font-size:6.29675px;line-height:1.25;font-family:'Times New Roman';-inkscape-font-specification:'Times New Roman, Normal';font-variant-ligatures:normal;font-variant-caps:normal;font-variant-numeric:normal;font-feature-settings:normal;text-align:start;letter-spacing:0px;word-spacing:0px;writing-mode:lr-tb;text-anchor:start;fill:#000000;fill-opacity:1;stroke:none;stroke-width:0.297656;stroke-miterlimit:4;stroke-dasharray:none"
       xml:space="preserve"><tspan
         style="stroke-width:0.297656;stroke-miterlimit:4;stroke-dasharray:none"
         y="94.658928"
         x="154.381"
         id="tspan2901"
         sodipodi:role="line">15D</tspan></text>
    <text
       id="text981-1-6-0-4-58-9-5-7-7-6-1-1-2-2-4-0"
       y="121.24927"
       x="39.692268"
       style="font-style:normal;font-variant:normal;font-weight:normal;font-stretch:normal;font-size:6.29675px;line-height:1.25;font-family:'Times New Roman';-inkscape-font-specification:'Times New Roman, Normal';font-variant-ligatures:normal;font-variant-caps:normal;font-variant-numeric:normal;font-feature-settings:normal;text-align:start;letter-spacing:0px;word-spacing:0px;writing-mode:lr-tb;text-anchor:start;fill:#000000;fill-opacity:1;stroke:none;stroke-width:0.297656;stroke-miterlimit:4;stroke-dasharray:none"
       xml:space="preserve"><tspan
         style="stroke-width:0.297656;stroke-miterlimit:4;stroke-dasharray:none"
         y="121.24927"
         x="39.692268"
         id="tspan2923"
         sodipodi:role="line">15G</tspan></text>
    <text
       id="text981-1-6-0-4-58-9-5-7-7-6-1-1-2-2-4-0-1"
       y="107.27538"
       x="113.30098"
       style="font-style:normal;font-variant:normal;font-weight:normal;font-stretch:normal;font-size:6.29675px;line-height:1.25;font-family:'Times New Roman';-inkscape-font-specification:'Times New Roman, Normal';font-variant-ligatures:normal;font-variant-caps:normal;font-variant-numeric:normal;font-feature-settings:normal;text-align:start;letter-spacing:0px;word-spacing:0px;writing-mode:lr-tb;text-anchor:start;fill:#000000;fill-opacity:1;stroke:none;stroke-width:0.297656;stroke-miterlimit:4;stroke-dasharray:none"
       xml:space="preserve"><tspan
         style="stroke-width:0.297656;stroke-miterlimit:4;stroke-dasharray:none"
         y="107.27538"
         x="113.30098"
         id="tspan2943"
         sodipodi:role="line">15E</tspan></text>
  </g>
</svg>
