<svg xmlns="http://www.w3.org/2000/svg" xmlns:xlink="http://www.w3.org/1999/xlink" version="1.1" width="256" height="256" viewBox="0 0 256 256" xml:space="preserve">
<g style="stroke: none; stroke-width: 0; stroke-dasharray: none; stroke-linecap: butt; stroke-linejoin: miter; stroke-miterlimit: 10; fill: none; fill-rule: nonzero; opacity: 1;" transform="translate(1.4065934065934016 1.4065934065934016) scale(2.81 2.81)">
	<path d="M 70.391 58.547 v 20.092 v 6.432 c 0 2.17 -1.759 3.929 -3.929 3.929 H 6.932 c -2.17 0 -3.929 -1.759 -3.929 -3.929 V 4.929 C 3.003 2.759 4.762 1 6.932 1 h 59.529 c 2.17 0 3.929 1.759 3.929 3.929 v 5.641 v 4.194 V 58.547 z" style="stroke: none; stroke-width: 1; stroke-dasharray: none; stroke-linecap: butt; stroke-linejoin: miter; stroke-miterlimit: 10; fill: rgb(200,239,254); fill-rule: nonzero; opacity: 1;" transform=" matrix(1 0 0 1 0 0) " stroke-linecap="round"/>
	<path d="M 66.462 90 H 6.932 c -2.718 0 -4.929 -2.212 -4.929 -4.93 V 4.929 C 2.003 2.211 4.214 0 6.932 0 h 59.53 c 2.718 0 4.929 2.211 4.929 4.929 v 9.835 c 0 0.552 -0.447 1 -1 1 s -1 -0.448 -1 -1 V 4.929 C 69.391 3.314 68.077 2 66.462 2 H 6.932 C 5.317 2 4.003 3.314 4.003 4.929 V 85.07 c 0 1.615 1.314 2.93 2.929 2.93 h 59.53 c 1.615 0 2.929 -1.314 2.929 -2.93 V 58.547 c 0 -0.553 0.447 -1 1 -1 s 1 0.447 1 1 V 85.07 C 71.391 87.788 69.18 90 66.462 90 z" style="stroke: none; stroke-width: 1; stroke-dasharray: none; stroke-linecap: butt; stroke-linejoin: miter; stroke-miterlimit: 10; fill: rgb(0,0,0); fill-rule: nonzero; opacity: 1;" transform=" matrix(1 0 0 1 0 0) " stroke-linecap="round"/>
	<path d="M 54.39 70.184 l -9.855 -6.676 L 76.661 16.08 c 0.864 -1.276 2.599 -1.609 3.874 -0.745 l 5.236 3.546 c 1.276 0.864 1.609 2.599 0.745 3.874 L 54.39 70.184 z" style="stroke: none; stroke-width: 1; stroke-dasharray: none; stroke-linecap: butt; stroke-linejoin: miter; stroke-miterlimit: 10; fill: rgb(89,134,203); fill-rule: nonzero; opacity: 1;" transform=" matrix(1 0 0 1 0 0) " stroke-linecap="round"/>
	<path d="M 82.535 28.634 l -9.855 -6.676 l 3.982 -5.879 c 0.864 -1.276 2.599 -1.609 3.874 -0.745 l 5.236 3.546 c 1.276 0.864 1.609 2.599 0.745 3.874 L 82.535 28.634 z" style="stroke: none; stroke-width: 1; stroke-dasharray: none; stroke-linecap: butt; stroke-linejoin: miter; stroke-miterlimit: 10; fill: rgb(98,219,251); fill-rule: nonzero; opacity: 1;" transform=" matrix(1 0 0 1 0 0) " stroke-linecap="round"/>
	<polygon points="54.39,70.18 41.5,78.61 44.53,63.51 " style="stroke: none; stroke-width: 1; stroke-dasharray: none; stroke-linecap: butt; stroke-linejoin: miter; stroke-miterlimit: 10; fill: rgb(98,219,251); fill-rule: nonzero; opacity: 1;" transform="  matrix(1 0 0 1 0 0) "/>
	<path d="M 54.391 71.185 c -0.198 0 -0.395 -0.06 -0.561 -0.172 l -9.856 -6.676 c -0.457 -0.31 -0.577 -0.932 -0.267 -1.389 l 32.126 -47.43 c 1.172 -1.729 3.531 -2.186 5.264 -1.012 l 5.235 3.546 c 1.73 1.172 2.185 3.534 1.013 5.264 L 55.219 70.745 c -0.148 0.22 -0.379 0.371 -0.64 0.422 C 54.517 71.179 54.453 71.185 54.391 71.185 z M 45.924 63.241 l 8.199 5.555 l 31.565 -46.602 c 0.554 -0.817 0.339 -1.932 -0.478 -2.486 l -5.235 -3.546 c -0.818 -0.554 -1.933 -0.339 -2.486 0.478 L 45.924 63.241 z" style="stroke: none; stroke-width: 1; stroke-dasharray: none; stroke-linecap: butt; stroke-linejoin: miter; stroke-miterlimit: 10; fill: rgb(0,0,0); fill-rule: nonzero; opacity: 1;" transform=" matrix(1 0 0 1 0 0) " stroke-linecap="round"/>
	<path d="M 82.533 29.634 c -0.193 0 -0.388 -0.056 -0.56 -0.172 l -9.855 -6.675 c -0.22 -0.149 -0.371 -0.379 -0.422 -0.639 c -0.05 -0.261 0.006 -0.53 0.154 -0.75 l 3.982 -5.879 c 1.172 -1.729 3.531 -2.186 5.264 -1.012 l 5.235 3.546 c 1.73 1.172 2.185 3.534 1.013 5.264 l -3.982 5.879 C 83.169 29.48 82.854 29.634 82.533 29.634 z M 74.067 21.692 l 8.199 5.554 l 3.422 -5.051 c 0.554 -0.817 0.339 -1.932 -0.478 -2.486 l -5.235 -3.546 c -0.818 -0.554 -1.933 -0.339 -2.486 0.478 L 74.067 21.692 z" style="stroke: none; stroke-width: 1; stroke-dasharray: none; stroke-linecap: butt; stroke-linejoin: miter; stroke-miterlimit: 10; fill: rgb(0,0,0); fill-rule: nonzero; opacity: 1;" transform=" matrix(1 0 0 1 0 0) " stroke-linecap="round"/>
	<path d="M 41.496 79.607 c -0.196 0 -0.392 -0.058 -0.561 -0.172 c -0.333 -0.227 -0.499 -0.631 -0.419 -1.025 l 3.039 -15.099 c 0.066 -0.328 0.292 -0.602 0.602 -0.729 c 0.311 -0.127 0.662 -0.089 0.94 0.098 l 9.855 6.676 c 0.277 0.188 0.442 0.502 0.439 0.837 c -0.003 0.334 -0.173 0.646 -0.453 0.828 l -12.895 8.423 C 41.877 79.554 41.687 79.607 41.496 79.607 z M 45.219 65.18 l -2.271 11.285 l 9.638 -6.295 L 45.219 65.18 z" style="stroke: none; stroke-width: 1; stroke-dasharray: none; stroke-linecap: butt; stroke-linejoin: miter; stroke-miterlimit: 10; fill: rgb(0,0,0); fill-rule: nonzero; opacity: 1;" transform=" matrix(1 0 0 1 0 0) " stroke-linecap="round"/>
	<path d="M 58.063 31.512 H 14.493 c -0.552 0 -1 -0.448 -1 -1 s 0.448 -1 1 -1 h 43.571 c 0.553 0 1 0.448 1 1 S 58.616 31.512 58.063 31.512 z" style="stroke: none; stroke-width: 1; stroke-dasharray: none; stroke-linecap: butt; stroke-linejoin: miter; stroke-miterlimit: 10; fill: rgb(0,0,0); fill-rule: nonzero; opacity: 1;" transform=" matrix(1 0 0 1 0 0) " stroke-linecap="round"/>
	<path d="M 58.063 18.512 H 14.493 c -0.552 0 -1 -0.448 -1 -1 s 0.448 -1 1 -1 h 43.571 c 0.553 0 1 0.448 1 1 S 58.616 18.512 58.063 18.512 z" style="stroke: none; stroke-width: 1; stroke-dasharray: none; stroke-linecap: butt; stroke-linejoin: miter; stroke-miterlimit: 10; fill: rgb(0,0,0); fill-rule: nonzero; opacity: 1;" transform=" matrix(1 0 0 1 0 0) " stroke-linecap="round"/>
	<path d="M 47.063 44.512 H 14.493 c -0.552 0 -1 -0.448 -1 -1 s 0.448 -1 1 -1 h 32.571 c 0.553 0 1 0.448 1 1 S 47.616 44.512 47.063 44.512 z" style="stroke: none; stroke-width: 1; stroke-dasharray: none; stroke-linecap: butt; stroke-linejoin: miter; stroke-miterlimit: 10; fill: rgb(0,0,0); fill-rule: nonzero; opacity: 1;" transform=" matrix(1 0 0 1 0 0) " stroke-linecap="round"/>
	<path d="M 37.063 57.512 h -22.57 c -0.552 0 -1 -0.447 -1 -1 s 0.448 -1 1 -1 h 22.57 c 0.552 0 1 0.447 1 1 S 37.615 57.512 37.063 57.512 z" style="stroke: none; stroke-width: 1; stroke-dasharray: none; stroke-linecap: butt; stroke-linejoin: miter; stroke-miterlimit: 10; fill: rgb(0,0,0); fill-rule: nonzero; opacity: 1;" transform=" matrix(1 0 0 1 0 0) " stroke-linecap="round"/>
	<path d="M 27.737 83.186 c -0.277 0 -0.548 -0.115 -0.741 -0.329 l -7.734 -8.539 c -0.129 1.109 -0.382 2.206 -0.753 3.251 c -0.105 0.295 -0.3 0.842 -0.804 1.215 c -0.437 0.322 -0.922 0.389 -1.297 0.41 c -2.196 0.13 -4.429 -0.954 -5.684 -2.763 c -0.315 -0.454 -0.203 -1.077 0.251 -1.392 c 0.454 -0.316 1.076 -0.204 1.392 0.251 c 0.867 1.248 2.406 2.003 3.924 1.907 c 0.183 -0.011 0.238 -0.031 0.247 -0.035 c -0.018 -0.004 0.012 -0.056 0.086 -0.265 c 0.567 -1.598 0.816 -3.338 0.717 -5.03 c -0.024 -0.423 0.221 -0.815 0.612 -0.979 c 0.39 -0.166 0.842 -0.063 1.128 0.251 l 7.662 8.459 c -0.059 -4.239 -0.454 -8.485 -1.178 -12.657 c -0.078 -0.447 0.156 -0.891 0.569 -1.08 c 0.414 -0.19 0.901 -0.077 1.189 0.274 l 9.704 11.825 c 0.351 0.428 0.289 1.058 -0.139 1.408 c -0.427 0.351 -1.056 0.288 -1.407 -0.139 l -7.401 -9.02 c 0.509 3.975 0.729 7.994 0.657 11.994 c -0.008 0.41 -0.265 0.773 -0.649 0.918 C 27.974 83.165 27.854 83.186 27.737 83.186 z" style="stroke: none; stroke-width: 1; stroke-dasharray: none; stroke-linecap: butt; stroke-linejoin: miter; stroke-miterlimit: 10; fill: rgb(0,0,0); fill-rule: nonzero; opacity: 1;" transform=" matrix(1 0 0 1 0 0) " stroke-linecap="round"/>
</g>
</svg>