<svg xmlns="http://www.w3.org/2000/svg" shape-rendering="geometricPrecision" text-rendering="geometricPrecision" image-rendering="optimizeQuality" fill-rule="evenodd" clip-rule="evenodd" viewBox="0 0 303.492 542.527"><path fill-rule="nonzero" d="M.022 439.064V158.256c0-11.648.02-8.652.014-9.727-.225-35.816-.257-40.824 28.427-74.686C63.836 32.065 123.54-1.047 178.116.026c49.464.97 89.89 31.128 109.743 74.9 13.722 30.223 17.317 68.058 14.965 106.598-2.969 48.624-15.432 98.771-28.753 135.584-14.075 38.898-39.918 81.765-71.095 119.872-30.434 37.198-66.24 70.194-101.475 90.913-11.154 6.556-21.679 11.028-31.496 13.15-11.031 2.384-21.301 1.939-30.722-1.651C1.649 525.043.123 484.048.076 453.076c-.004-4.712-.054-9.286-.054-14.012z"/><path fill="#FFCAA1" d="M13.677 447.31V158.256c0-40.572-2.696-42.695 25.187-75.611 13.277-15.68 27.777-28.175 43.434-38.051C137.641 9.692 204.532-3.964 253.85 47.967c8.637 9.097 15.85 19.928 21.582 32.559 29.157 64.226 8.817 168.438-14.163 231.941-26.737 73.887-98.302 163.501-166.649 203.691-19.72 11.594-36.77 15.71-50.484 10.484-31.183-11.888-30.459-51.823-30.459-79.332z"/><path fill="#F7B081" d="M240.189 144.6c-48.18-33.399-94.975-32.631-140.838-8.878 12.957-25.509 32.891-40.187 53.954-44.793 12.042-2.632 24.458-2.004 36.136 1.748 11.74 3.771 22.785 10.708 32.022 20.67 7.722 8.329 14.173 18.771 18.726 31.253zM101.952 237.064c9.81 40.503 5.785 76.698-20.678 102.645a6.886 6.886 0 01-.999 1.876c-5.019 10.279-14.622 18.317-26.557 23.466-2.087 3.995-3.713 8.377-4.841 12.907-2.001 8.05-2.41 16.466-1.026 23.959.469 2.544 1.007 3.673 1.602 3.53 3.814-.917 9.667-5.572 17.323-13.543 8.888-9.257 19.406-19.183 30.444-29.6 33.967-32.057 73.024-68.917 80.545-101.364 6.655-28.713-13.175-55.303-88.412-74.191 1.646 13.324 6.667 26.87 15.297 40.651a6.793 6.793 0 01-2.698 9.664zM134.511 487.572c-13.184 11.079-26.598 20.769-39.891 28.586-19.72 11.594-36.77 15.71-50.484 10.484-27.202-10.371-30.123-42.081-30.425-68.271 21.437 65.66 67.746 66.736 120.8 29.201z"/><path d="M54.182 333.757l-3.738 12.377a58.23 58.23 0 00-2.011 2.316c-6.039 7.331-10.377 16.575-12.785 26.253-2.448 9.844-2.925 20.26-1.187 29.667 2.24 12.13 8.423 16.642 18.139 14.307 6.497-1.561 14.555-7.503 23.992-17.33 8.633-8.991 19.04-18.813 29.963-29.121 35.368-33.378 76.035-71.758 84.492-108.244 8.529-36.799-13.991-70.018-102.181-91.386.528-9.635 2.805-19.207 6.739-28.718 12.642-30.56 34.485-47.872 57.7-52.949 12.042-2.632 24.458-2.004 36.136 1.748 11.74 3.771 22.785 10.708 32.022 20.67 20.453 22.059 31.996 58.93 22.949 109.31-3.707 20.646-10.936 38.488-20.789 55.073-9.949 16.745-22.634 32.286-37.105 48.157-6.146 6.739-12.459 13.184-18.787 19.645-2.701 2.758-5.41 5.523-8.014 8.214l-2.289 2.359c-15.615 16.068-48.499 49.912-47.871 68.895a6.805 6.805 0 0013.603-.427c-.436-13.211 29.714-44.241 44.029-58.972l2.289-2.359c2.694-2.784 5.332-5.475 7.962-8.162 6.566-6.704 13.119-13.393 19.161-20.018 15.02-16.473 28.24-32.695 38.758-50.397 10.611-17.863 18.412-37.16 22.443-59.607 9.902-55.147-3.263-96.079-26.364-120.994-10.85-11.7-23.904-19.875-37.835-24.35-13.994-4.497-28.831-5.259-43.18-2.122-27.32 5.975-52.874 25.975-67.409 61.112-6.46 15.621-9.033 31.466-7.417 47.549 1.606 15.979 7.352 32.093 17.53 48.348a6.794 6.794 0 1011.523-7.201c-8.63-13.781-13.651-27.327-15.297-40.651 75.237 18.888 95.067 45.478 88.412 74.191-7.521 32.447-46.578 69.307-80.545 101.364-11.038 10.417-21.556 20.343-30.444 29.6-7.656 7.971-13.509 12.626-17.323 13.543-.595.143-1.133-.986-1.602-3.53-1.384-7.493-.975-15.909 1.026-23.959 1.128-4.53 2.754-8.912 4.841-12.907 11.935-5.149 21.538-13.187 26.557-23.466a6.854 6.854 0 001.265-2.883c2.928-7.525 3.481-16.129.867-25.587-14.238-51.506-61.922-21.804-28.225 20.642z"/></svg>