<?xml version='1.0' encoding='utf-8'?>
<svg xmlns="http://www.w3.org/2000/svg" width="41.667in" height="31.25in" clip-rule="evenodd" fill-rule="evenodd" image-rendering="optimizeQuality" shape-rendering="geometricPrecision" text-rendering="geometricPrecision" version="1.1" viewBox="0 0 41667 31250"> <defs> <style type="text/css">.fil1 {fill:#4D4D4D;fill-rule:nonzero} .fil0 {fill:#B3B3B3;fill-rule:nonzero}</style> </defs> <path class="fil0" d="m8939.6 17015 2886-7160.3s1613-108.35 3300.1-811.27c3620.7-1508.6 2805.2-1510.9 3620.7-1508.6 1201.4 3.45 4365.1 2099 4365.1 2099l6875 8587s970.08 1198.2-297.32 2071.7c-1487 1024.8-4075.1-1492-4075.1-1492s2727.6 1989.5 1342.3 3131.3c-1454.8 1199-4041.8-1837.8-4041.8-1837.8s2215.4 1998.4 1170.8 2935.8c-1107.3 993.61-3645.2-1473.7-3645.2-1473.7s2305.7 1912.1 456.78 2977.4c-1331.4 766.94-11957-7518.5-11957-7518.5z"/> <path class="fil1" d="m14001 11489 1476.2-885.76s841.99-1072.9 1223.2-1307.5c1107.9-681.88 3458.6-1012.2 4892.7-1771.4 850.02-450.05 2841.3 539.39 3753.8 843.56 3036.9 1012.3 3917.3 1315.9 3917.3 1315.9l3674.8 6487s-175.78 773.58-1097.3 1399.2c-994.93 675.33-1618.4 731.88-1981.8 625.42-2513.6-736.25-8013.8-6748.5-8013.8-6748.5s-1108.3-73.31-1476.2-42.15c-374.97 31.73-1128.4 151.55-1476.2 295.22-513.98 212.35-1392.3 928.76-1898 1159.9-493.11 225.31-1631.5 428.6-2151.1 274.12-1560.6-463.98-843.56-1644.9-843.56-1644.9z"/> <path class="fil1" d="m13748 17788c329.43-329.43 329.43-863.54 0-1193l-298.2-298.23c-329.43-329.43-863.6-329.43-1193 0l-1968.5 1968.4c-329.37 329.43-329.37 863.54 0.06 1193l298.26 298.24c329.43 329.52 863.54 329.4 1192.9 0l1968.4-1968.4z"/> <path class="fil1" d="m15942 19222c329.46-329.4 329.55-863.42 0-1193l-298.2-298.2c-329.43-329.43-863.54-329.43-1193 0l-1968.4 1968.4c-329.43 329.43-329.43 863.57 0 1193l298.23 298.24c329.49 329.55 863.54 329.43 1193 0l1968.4-1968.4z"/> <path class="fil1" d="m18051 20825c329.43-329.46 329.49-863.45 0-1193l-298.24-298.2c-329.4-329.46-863.57-329.46-1193 0l-1968.4 1968.4c-329.43 329.43-329.43 863.54 0 1193l298.2 298.21c329.55 329.55 863.59 329.43 1193 0l1968.4-1968.4z"/> <path class="fil1" d="m19815 22435c286.64-286.55 284.69-753.13-4.28-1042.1l-261.55-261.52c-288.97-288.97-755.55-291-1042.2-4.37l-1712.1 1712.1c-286.61 286.61-284.72 753.22 4.25 1042.2l261.58 261.52c289 289.06 755.55 290.89 1042.1 4.37l1712.1-1712.2z"/> <polygon class="fil1" points="11610 8912.6 7229.8 7152.5 3687.5 15968 8068 17728"/> <polygon class="fil0" points="29475 8927.4 33452 6666.8 37979 14684 34002 16944"/> </svg>