
<?xml version="1.0" encoding="utf-8"?>
<!-- Generator: Adobe Illustrator 27.5.0, SVG Export Plug-In . SVG Version: 6.00 Build 0)  -->
<svg version="1.1" xmlns="http://www.w3.org/2000/svg" xmlns:xlink="http://www.w3.org/1999/xlink" x="0px" y="0px"
	 viewBox="0 0 1122 1122" style="enable-background:new 0 0 1122 1122;" xml:space="preserve">
<g id="Bg">
	<rect style="fill:#FFFFFF;" width="1122" height="1122"/>
	<path style="fill:#393939;" d="M0,0v1122h1122V0H0z M561,1076.03c-293.127,0-530.754-230.587-530.754-515.03
		S267.873,45.97,561,45.97S1091.754,276.557,1091.754,561S854.127,1076.03,561,1076.03z"/>
</g>
<g id="Object">
	<g>
		<g>
			<path style="fill:#4E4E4E;" d="M567.253,972.585H554.32c-7.16,0-12.965-5.805-12.965-12.965V168.846
				c0-10.732,8.7-19.431,19.431-19.431h0c10.732,0,19.431,8.7,19.431,19.431V959.62C580.218,966.78,574.413,972.585,567.253,972.585
				z"/>
		</g>
		<g style="opacity:0.3;">
			<polygon style="fill:#232222;" points="541.494,506.414 580.218,464.845 580.218,449.553 541.494,449.553 			"/>
		</g>
		<g style="opacity:0.3;">
			<polygon style="fill:#232222;" points="541.494,684.393 580.218,642.824 580.218,627.533 541.494,627.533 			"/>
		</g>
		<g>
			<g>
				<path style="fill:#8D735C;" d="M644.859,497.675l3.756-20.647l-270.265-44.815c-7.014-1.163-11.757-7.792-10.594-14.806
					l14.158-85.379c1.163-7.014,7.792-11.757,14.806-10.594l270.435,44.844l3.849-20.379c0.892-4.723,6.825-6.355,10.007-2.752
					l75.042,84.968c5.237,5.93,3.695,15.175-3.183,19.084l-99.473,56.534C649.135,506.155,643.982,502.5,644.859,497.675z"/>
			</g>
			<g style="opacity:0.4;">
				<g style="opacity:0.76;">
					<path style="fill:#5F4C3F;" d="M693.672,452.551c7.941,0.977,14.889,1.69,20.121,1.992
						C713.793,454.543,706.192,453.921,693.672,452.551z"/>
					<path style="fill:#7A5F49;" d="M713.765,455.042c-4.928-0.284-11.708-0.955-20.155-1.995l0.116-0.993
						c12.369,1.353,20.032,1.984,20.108,1.991L713.765,455.042z"/>
				</g>
				<g style="opacity:0.76;">
					<path style="fill:#5F4C3F;" d="M588.368,435.981c40.659,8.75,81.716,13.989,105.304,16.57
						C653.685,447.631,588.368,435.981,588.368,435.981z"/>
					<path style="fill:#7A5F49;" d="M693.617,453.048c-21.518-2.355-63.817-7.64-105.354-16.578l0.193-0.981
						c0.653,0.116,65.762,11.704,105.277,16.566L693.617,453.048z"/>
				</g>
				<g style="opacity:0.76;">
					<path style="fill:#5F4C3F;" d="M744.319,451.214c-8.553-1.24-17.09-2.402-25.613-3.665c7.325,1.175,16.259,2.616,24.853,4.01
						C743.811,451.44,744.065,451.328,744.319,451.214z"/>
					<path style="fill:#7A5F49;" d="M743.633,452.077l-0.153-0.025c-8.594-1.395-17.526-2.835-24.852-4.009l0.152-0.988
						c4.911,0.728,9.826,1.422,14.747,2.116c3.618,0.512,7.239,1.022,10.863,1.548l1.699,0.247l-1.759,0.791
						c-0.186,0.083-0.372,0.166-0.558,0.254L743.633,452.077z"/>
				</g>
				<g style="opacity:0.76;">
					<path style="fill:#5F4C3F;" d="M718.706,447.548c-7.962-1.277-14.028-2.241-15.686-2.488
						C708.243,445.958,713.472,446.772,718.706,447.548z"/>
					<path style="fill:#7A5F49;" d="M718.633,448.042c-6.046-0.896-11.034-1.688-15.698-2.488l0.158-0.987
						c1.563,0.232,7.137,1.116,15.692,2.487L718.633,448.042z"/>
				</g>
				<g style="opacity:0.76;">
					<path style="fill:#5F4C3F;" d="M502.647,420.598c-34.507-4.005-90.78-14.147-90.78-14.147
						C446.857,414.255,482.284,418.554,502.647,420.598z"/>
					<path style="fill:#7A5F49;" d="M502.597,421.095c-18.586-1.865-55.101-6.185-90.839-14.156l0.197-0.98
						c0.563,0.102,56.652,10.185,90.749,14.143L502.597,421.095z"/>
				</g>
				<g style="opacity:0.76;">
					<path style="fill:#5F4C3F;" d="M502.647,420.598c6.853,0.796,12.852,1.35,17.376,1.534
						C520.023,422.132,513.455,421.682,502.647,420.598z"/>
					<path style="fill:#7A5F49;" d="M520.003,422.632c-4.248-0.173-10.107-0.69-17.413-1.537l0.107-0.994
						c10.675,1.071,17.295,1.528,17.36,1.532L520.003,422.632z"/>
				</g>
				<g style="opacity:0.76;">
					<path style="fill:#5F4C3F;" d="M555.893,425.241c8.152,1.307,16.305,2.615,24.458,3.923c16.465,2.641,32.93,5.282,49.395,7.922
						c-26.688-4.473-53.376-8.946-80.063-13.419c-5.355-0.897-11.762-2.127-17.054-2.356
						C537.451,423.021,549.867,424.274,555.893,425.241z"/>
					<path style="fill:#7A5F49;" d="M629.666,437.58l-73.853-11.846c-1.671-0.269-3.873-0.564-6.204-0.876
						c-6.067-0.813-13.619-1.824-17.148-3.076l-3.145-1.116l3.333,0.145c4.491,0.195,9.819,1.112,14.519,1.921
						c0.886,0.152,1.754,0.302,2.596,0.442l80.064,13.419L629.666,437.58z"/>
				</g>
				<g style="opacity:0.76;">
					<path style="fill:#5F4C3F;" d="M514.237,426.512c11.444,1.696,22.866,3.751,34.272,5.653c-1.747-0.916-4.12-1.384-6.375-1.789
						C532.928,428.721,523.521,427.353,514.237,426.512z"/>
					<path style="fill:#7A5F49;" d="M551.503,433.171l-3.076-0.513c-3.337-0.557-6.675-1.126-10.015-1.696
						c-7.943-1.355-16.157-2.756-24.248-3.956l0.118-0.992c8.579,0.777,17.979,2.079,27.941,3.87
						c2.415,0.435,4.731,0.901,6.518,1.839L551.503,433.171z"/>
				</g>
				<g style="opacity:0.76;">
					<path style="fill:#5F4C3F;" d="M380.476,405.339c-1.56-0.194-3.118-0.386-4.672-0.569
						C377.348,405.003,378.908,405.183,380.476,405.339z"/>
					<path style="fill:#7A5F49;" d="M380.427,405.837c-1.798-0.179-3.291-0.36-4.697-0.572l0.133-0.99
						c1.555,0.183,3.114,0.374,4.675,0.568L380.427,405.837z"/>
				</g>
				<g style="opacity:0.76;">
					<path style="fill:#5F4C3F;" d="M398.115,407.331c-5.731-1.185-11.743-1.406-17.639-1.992
						C386.356,406.071,392.263,406.841,398.115,407.331z"/>
					<path style="fill:#7A5F49;" d="M398.073,407.828c-5.191-0.434-10.502-1.098-15.637-1.74l-2.021-0.253l0.111-0.993
						c1.619,0.16,3.248,0.294,4.877,0.428c4.243,0.347,8.63,0.706,12.813,1.571L398.073,407.828z"/>
				</g>
				<g style="opacity:0.76;">
					<path style="fill:#5F4C3F;" d="M419.203,402.008c-2.133-0.468-4.297-0.835-6.471-1.095c1.96,0.481,3.92,0.961,5.879,1.442
						L419.203,402.008z"/>
					<path style="fill:#7A5F49;" d="M418.689,402.889l-6.076-1.49l0.179-0.981c2.183,0.261,4.375,0.632,6.519,1.103l1.247,0.274
						L418.689,402.889z"/>
				</g>
				<g style="opacity:0.76;">
					<path style="fill:#5F4C3F;" d="M368.613,427.313c40.659,8.75,81.716,13.989,105.304,16.57
						C433.931,438.963,368.613,427.313,368.613,427.313z"/>
					<path style="fill:#7A5F49;" d="M473.863,444.38c-21.517-2.355-63.815-7.639-105.355-16.578l0.193-0.981
						c0.653,0.116,65.762,11.705,105.278,16.566L473.863,444.38z"/>
				</g>
				<g style="opacity:0.76;">
					<path style="fill:#5F4C3F;" d="M408.114,419.016c18.368,2.751,36.756,5.721,55.097,8.594
						c-2.905-0.826-6.731-1.469-10.362-2.055C438.027,423.163,422.932,420.917,408.114,419.016z"/>
					<path style="fill:#7A5F49;" d="M463.133,428.104c-5.361-0.84-10.728-1.689-16.096-2.537
						c-12.783-2.021-26.001-4.109-38.997-6.057l0.138-0.99c13.682,1.755,28.738,3.956,44.751,6.542
						c3.685,0.594,7.523,1.243,10.418,2.067L463.133,428.104z"/>
				</g>
			</g>
			<g style="opacity:0.4;">
				<g style="opacity:0.76;">
					<path style="fill:#5F4C3F;" d="M460.507,391.644c-7.953-0.977-14.912-1.69-20.152-1.992
						C440.355,389.652,447.967,390.274,460.507,391.644z"/>
					<path style="fill:#7A5F49;" d="M460.452,392.141c-12.387-1.353-20.062-1.984-20.138-1.991l0.07-0.997
						c4.932,0.285,11.722,0.956,20.183,1.995L460.452,392.141z"/>
				</g>
				<g style="opacity:0.76;">
					<path style="fill:#5F4C3F;" d="M565.971,408.214c-40.721-8.75-81.841-13.989-105.465-16.57
						C500.554,396.564,565.971,408.214,565.971,408.214z"/>
					<path style="fill:#7A5F49;" d="M565.883,408.706c-0.654-0.116-65.861-11.704-105.438-16.566l0.115-0.993
						c21.558,2.356,63.932,7.643,105.516,16.578L565.883,408.706z"/>
				</g>
				<g style="opacity:0.76;">
					<path style="fill:#5F4C3F;" d="M382.149,388.486c17.831,3.368,35.589,5.541,53.285,8.161
						c-21.518-3.446-56.893-9.18-56.89-9.313C378.534,387.712,380.53,388.18,382.149,388.486z"/>
					<path style="fill:#7A5F49;" d="M435.361,397.141c-4.92-0.728-9.846-1.422-14.775-2.116
						c-12.608-1.777-25.646-3.614-38.529-6.047l0,0c-3.274-0.62-3.9-1.037-3.996-1.471c-0.02-0.055-0.018-0.116-0.016-0.188
						l0.5,0.014l0.161-0.47c1.006,0.279,33.765,5.599,56.808,9.289L435.361,397.141z"/>
				</g>
				<g style="opacity:0.76;">
					<path style="fill:#5F4C3F;" d="M435.434,396.647c7.975,1.277,14.05,2.241,15.71,2.488
						C445.913,398.237,440.676,397.423,435.434,396.647z"/>
					<path style="fill:#7A5F49;" d="M451.071,399.629c-1.574-0.233-7.302-1.141-15.716-2.488l0.152-0.988
						c6.057,0.896,11.053,1.688,15.722,2.489L451.071,399.629z"/>
				</g>
				<g style="opacity:0.76;">
					<path style="fill:#5F4C3F;" d="M402.965,386.102c-1.963-0.481-3.926-0.961-5.888-1.442l-0.592,0.347
						C398.62,385.475,400.788,385.841,402.965,386.102z"/>
					<path style="fill:#7A5F49;" d="M402.905,386.598c-2.186-0.261-4.383-0.632-6.528-1.103l-1.249-0.274l1.871-1.095l6.085,1.49
						L402.905,386.598z"/>
				</g>
				<g style="opacity:0.76;">
					<path style="fill:#5F4C3F;" d="M651.823,423.597c34.559,4.006,90.919,14.147,90.919,14.147
						C707.698,429.94,672.217,425.641,651.823,423.597z"/>
					<path style="fill:#7A5F49;" d="M742.652,438.237c-0.563-0.102-56.739-10.186-90.887-14.143l0.107-0.994
						c18.607,1.863,55.169,6.182,90.977,14.156L742.652,438.237z"/>
				</g>
				<g style="opacity:0.76;">
					<path style="fill:#5F4C3F;" d="M651.823,423.597c-6.863-0.795-12.872-1.35-17.402-1.534
						C634.42,422.063,640.998,422.513,651.823,423.597z"/>
					<path style="fill:#7A5F49;" d="M651.773,424.095c-10.692-1.071-17.321-1.528-17.387-1.532l0.055-0.999
						c4.269,0.174,10.136,0.69,17.44,1.537L651.773,424.095z"/>
				</g>
				<g style="opacity:0.76;">
					<path style="fill:#5F4C3F;" d="M598.496,418.954c-8.165-1.308-16.33-2.615-24.495-3.923c-16.49-2.641-32.98-5.282-49.47-7.922
						c26.728,4.473,53.457,8.946,80.185,13.419c5.363,0.897,11.78,2.127,17.08,2.356
						C616.966,421.173,604.53,419.921,598.496,418.954z"/>
					<path style="fill:#7A5F49;" d="M625.113,423.528l-3.339-0.145c-4.492-0.195-9.823-1.11-14.527-1.918
						c-0.892-0.152-1.766-0.303-2.612-0.444l-80.187-13.419l0.162-0.987l73.965,11.845c1.677,0.27,3.888,0.565,6.228,0.878
						c6.071,0.813,13.628,1.824,17.16,3.074L625.113,423.528z"/>
				</g>
				<g style="opacity:0.76;">
					<path style="fill:#5F4C3F;" d="M640.215,417.683c-11.461-1.696-22.901-3.751-34.324-5.653c1.749,0.916,4.126,1.384,6.385,1.789
						C621.495,415.474,630.917,416.842,640.215,417.683z"/>
					<path style="fill:#7A5F49;" d="M640.17,418.181c-8.6-0.777-18.015-2.079-27.983-3.869c-2.422-0.435-4.744-0.904-6.528-1.838
						l-2.77-1.45l3.083,0.514c3.336,0.556,6.673,1.124,10.012,1.692c7.961,1.356,16.194,2.759,24.304,3.959L640.17,418.181z"/>
				</g>
				<g style="opacity:0.76;">
					<path style="fill:#5F4C3F;" d="M735.394,442.187c2.136,0.468,4.303,0.835,6.481,1.095c-1.963-0.481-3.926-0.961-5.889-1.442
						L735.394,442.187z"/>
					<path style="fill:#7A5F49;" d="M741.815,443.778c-2.185-0.261-4.381-0.632-6.528-1.102l-1.249-0.273l1.87-1.097l6.086,1.491
						L741.815,443.778z"/>
				</g>
			</g>
			<g style="opacity:0.4;">
				<g style="opacity:0.76;">
					<path style="fill:#5F4C3F;" d="M607.445,388.166c7.953,0.977,14.912,1.69,20.152,1.992
						C627.597,390.158,619.984,389.536,607.445,388.166z"/>
					<path style="fill:#7A5F49;" d="M627.569,390.657c-4.918-0.283-11.709-0.954-20.184-1.995l0.115-0.993
						c12.387,1.354,20.061,1.984,20.138,1.991L627.569,390.657z"/>
				</g>
				<g style="opacity:0.76;">
					<path style="fill:#5F4C3F;" d="M501.981,371.596c40.72,8.75,81.841,13.989,105.464,16.57
						C567.398,383.246,501.981,371.596,501.981,371.596z"/>
					<path style="fill:#7A5F49;" d="M607.391,388.663c-21.558-2.356-63.932-7.644-105.516-16.578l0.193-0.982
						c0.654,0.116,65.861,11.704,105.437,16.566L607.391,388.663z"/>
				</g>
				<g style="opacity:0.76;">
					<path style="fill:#5F4C3F;" d="M685.803,391.324c-17.831-3.367-35.589-5.541-53.285-8.161
						c21.518,3.446,56.894,9.18,56.89,9.313C689.418,392.098,687.422,391.63,685.803,391.324z"/>
					<path style="fill:#7A5F49;" d="M689.247,392.946c-1.004-0.279-33.764-5.599-56.808-9.289l0.152-0.988
						c4.917,0.728,9.838,1.421,14.765,2.115c12.611,1.777,25.652,3.614,38.539,6.049c3.276,0.618,3.902,1.035,3.998,1.47
						c0.018,0.056,0.017,0.116,0.015,0.188l-0.5-0.014L689.247,392.946z"/>
				</g>
				<g style="opacity:0.76;">
					<path style="fill:#5F4C3F;" d="M632.518,383.163c-7.974-1.277-14.049-2.241-15.71-2.488
						C622.039,381.573,627.276,382.387,632.518,383.163z"/>
					<path style="fill:#7A5F49;" d="M632.445,383.657c-6.053-0.896-11.049-1.686-15.723-2.488l0.158-0.987
						c1.602,0.237,7.477,1.168,15.717,2.487L632.445,383.657z"/>
				</g>
				<g style="opacity:0.76;">
					<path style="fill:#5F4C3F;" d="M664.987,393.708c1.963,0.481,3.926,0.961,5.888,1.442l0.592-0.347
						C669.332,394.335,667.164,393.968,664.987,393.708z"/>
					<path style="fill:#7A5F49;" d="M670.954,395.685l-6.086-1.491l0.179-0.981c2.186,0.262,4.382,0.632,6.528,1.103l1.246,0.272
						L670.954,395.685z"/>
				</g>
				<g style="opacity:0.76;">
					<path style="fill:#5F4C3F;" d="M376.17,368.428c-0.027,0.135-0.062,0.269-0.092,0.403c31.077,6.263,61.14,9.865,79.275,11.683
						C430.557,377.64,394.543,371.608,376.17,368.428z"/>
					<path style="fill:#7A5F49;" d="M455.302,381.011c-19.344-1.938-48.808-5.54-79.323-11.689l-0.502-0.102l0.147-0.646
						c0.02-0.081,0.038-0.161,0.055-0.241l0.094-0.48l0.481,0.083c19.008,3.289,54.566,9.232,79.155,12.081L455.302,381.011z"/>
				</g>
				<g style="opacity:0.76;">
					<path style="fill:#5F4C3F;" d="M416.129,356.212c6.863,0.796,12.872,1.35,17.402,1.534
						C433.532,357.747,426.954,357.297,416.129,356.212z"/>
					<path style="fill:#7A5F49;" d="M433.511,358.247c-4.267-0.174-10.134-0.691-17.44-1.537l0.107-0.994
						c10.692,1.07,17.321,1.528,17.387,1.532L433.511,358.247z"/>
				</g>
				<g style="opacity:0.76;">
					<path style="fill:#5F4C3F;" d="M469.457,360.855c8.165,1.307,16.33,2.615,24.495,3.923c16.49,2.641,32.98,5.282,49.47,7.923
						c-26.728-4.473-53.457-8.946-80.185-13.419c-5.363-0.897-11.78-2.127-17.08-2.356
						C450.986,358.636,463.422,359.889,469.457,360.855z"/>
					<path style="fill:#7A5F49;" d="M543.342,373.195l-73.965-11.846c-1.677-0.27-3.888-0.564-6.228-0.878
						c-6.072-0.813-13.629-1.823-17.161-3.074l-3.148-1.115l3.337,0.144c4.497,0.195,9.832,1.111,14.54,1.92
						c0.888,0.152,1.757,0.302,2.602,0.443l80.186,13.419L543.342,373.195z"/>
				</g>
				<g style="opacity:0.76;">
					<path style="fill:#5F4C3F;" d="M409.61,359.399c17.499,2.604,34.993,5.571,52.452,8.381c-2.724-1.063-6.362-1.72-9.816-2.305
						C438.146,363.085,423.763,360.97,409.61,359.399z"/>
					<path style="fill:#7A5F49;" d="M466.614,369.02l-4.632-0.746c-5.112-0.822-10.229-1.659-15.346-2.496
						c-12.157-1.987-24.729-4.043-37.1-5.885l0.129-0.991c13.072,1.452,27.427,3.498,42.664,6.08
						c3.517,0.596,7.18,1.267,9.913,2.333L466.614,369.02z"/>
				</g>
				<g style="opacity:0.76;">
					<path style="fill:#5F4C3F;" d="M476.096,437.3c-5.74-1.185-11.761-1.406-17.666-1.992
						C464.319,436.04,470.235,436.81,476.096,437.3z"/>
					<path style="fill:#7A5F49;" d="M476.054,437.798c-5.21-0.436-10.538-1.101-15.69-1.744l-1.995-0.249l0.11-0.994
						c1.618,0.161,3.245,0.294,4.873,0.427c4.253,0.348,8.651,0.706,12.846,1.573L476.054,437.798z"/>
				</g>
				<g style="opacity:0.76;">
					<path style="fill:#5F4C3F;" d="M497.216,431.977c-2.136-0.468-4.303-0.835-6.481-1.095c1.963,0.481,3.926,0.961,5.888,1.442
						L497.216,431.977z"/>
					<path style="fill:#7A5F49;" d="M496.702,432.858l-6.086-1.491l0.179-0.981c2.19,0.262,4.387,0.633,6.529,1.104l1.249,0.274
						L496.702,432.858z"/>
				</g>
			</g>
			<g style="opacity:0.4;">
				<g style="opacity:0.76;">
					<path style="fill:#5F4C3F;" d="M383.38,328.064c-0.017,0.05-0.034,0.1-0.051,0.15c40.057,5.404,95.585,15.292,95.585,15.292
						C443.422,335.88,407.63,330.922,383.38,328.064z"/>
					<path style="fill:#7A5F49;" d="M478.827,343.998c-0.555-0.099-55.977-9.948-95.564-15.289l-0.599-0.08l0.319-0.959l0.455-0.102
						c23.92,2.818,59.919,7.786,95.581,15.448L478.827,343.998z"/>
				</g>
				<g style="opacity:0.76;">
					<path style="fill:#5F4C3F;" d="M708.753,470.702c-78.339-12.008-171.276-26.296-171.313-26.413
						c0.124,0.399,7.774,1.717,13.947,2.708c52.72,8.465,104.968,16.147,157.092,23.863
						C708.57,470.808,708.662,470.755,708.753,470.702z"/>
					<path style="fill:#7A5F49;" d="M708.581,471.382l-10.756-1.592c-47.865-7.082-97.359-14.405-146.516-22.298
						c-14.1-2.265-14.219-2.647-14.346-3.054l0,0l0.477-0.148l0.129-0.482c1.38,0.315,87.009,13.486,171.26,26.4l1.411,0.216
						L708.581,471.382z"/>
				</g>
				<g style="opacity:0.76;">
					<path style="fill:#5F4C3F;" d="M381.108,347.526c7.975,1.277,14.05,2.241,15.71,2.488
						C391.587,349.116,386.35,348.302,381.108,347.526z"/>
					<path style="fill:#7A5F49;" d="M396.746,350.508c-1.57-0.233-7.299-1.141-15.717-2.488l0.152-0.988
						c6.061,0.897,11.058,1.688,15.723,2.489L396.746,350.508z"/>
				</g>
				<g style="opacity:0.76;">
					<path style="fill:#5F4C3F;" d="M552.51,391.009c-7.53-1.319-15.062-2.637-22.592-3.956l-2.062,0.126
						C536.027,388.555,544.274,389.836,552.51,391.009z"/>
					<path style="fill:#7A5F49;" d="M552.44,391.504c-8.215-1.17-16.514-2.459-24.667-3.832l-4.31-0.726l6.483-0.396l2.987,0.523
						l19.662,3.443L552.44,391.504z"/>
				</g>
				<g style="opacity:0.76;">
					<path style="fill:#5F4C3F;" d="M564.766,358.89c34.559,4.006,90.919,14.147,90.919,14.147
						C620.641,365.233,585.161,360.933,564.766,358.89z"/>
					<path style="fill:#7A5F49;" d="M655.596,373.529c-0.564-0.102-56.739-10.185-90.888-14.143l0.107-0.994
						c18.613,1.865,55.184,6.184,90.978,14.156L655.596,373.529z"/>
				</g>
				<g style="opacity:0.76;">
					<path style="fill:#5F4C3F;" d="M564.766,358.89c-6.863-0.796-12.871-1.35-17.402-1.534
						C547.364,357.355,553.942,357.805,564.766,358.89z"/>
					<path style="fill:#7A5F49;" d="M564.716,359.387c-10.692-1.071-17.321-1.528-17.387-1.532l0.055-0.999
						c4.254,0.173,10.121,0.689,17.44,1.537L564.716,359.387z"/>
				</g>
				<g style="opacity:0.76;">
					<path style="fill:#5F4C3F;" d="M511.439,354.247c-8.165-1.308-16.33-2.615-24.495-3.923c-16.49-2.641-32.98-5.282-49.47-7.923
						c26.728,4.473,53.457,8.946,80.185,13.419c5.363,0.898,11.78,2.127,17.08,2.356
						C529.909,356.466,517.474,355.213,511.439,354.247z"/>
					<path style="fill:#7A5F49;" d="M538.055,358.82l-3.337-0.144c-4.497-0.195-9.832-1.111-14.54-1.92
						c-0.888-0.152-1.757-0.302-2.602-0.443l-80.186-13.419l0.162-0.987l73.965,11.846c1.674,0.269,3.878,0.564,6.213,0.876
						c6.077,0.813,13.641,1.824,17.176,3.076L538.055,358.82z"/>
				</g>
				<g style="opacity:0.76;">
					<path style="fill:#5F4C3F;" d="M553.158,352.975c-11.461-1.696-22.9-3.751-34.324-5.653c1.749,0.916,4.126,1.384,6.384,1.789
						C534.439,350.767,543.86,352.134,553.158,352.975z"/>
					<path style="fill:#7A5F49;" d="M553.114,353.474c-8.592-0.777-18.007-2.079-27.982-3.87c-2.42-0.435-4.74-0.901-6.529-1.838
						l-2.767-1.449l3.081,0.513c3.343,0.557,6.687,1.126,10.031,1.696c7.955,1.355,16.181,2.756,24.284,3.956L553.114,353.474z"/>
				</g>
				<g style="opacity:0.76;">
					<path style="fill:#5F4C3F;" d="M687.123,374.148c1.562,0.194,3.122,0.386,4.679,0.569
						C690.256,374.484,688.694,374.304,687.123,374.148z"/>
					<path style="fill:#7A5F49;" d="M691.744,375.214c-1.558-0.184-3.119-0.375-4.682-0.569l0.11-0.994
						c1.8,0.179,3.294,0.36,4.704,0.572L691.744,375.214z"/>
				</g>
				<g style="opacity:0.76;">
					<path style="fill:#5F4C3F;" d="M669.457,372.157c5.74,1.185,11.761,1.406,17.666,1.992
						C681.235,373.417,675.319,372.647,669.457,372.157z"/>
					<path style="fill:#7A5F49;" d="M687.074,374.646c-1.622-0.16-3.253-0.294-4.885-0.427c-4.249-0.348-8.644-0.707-12.833-1.572
						l0.143-0.987c5.198,0.434,10.515,1.098,15.656,1.74l2.03,0.253L687.074,374.646z"/>
				</g>
				<g style="opacity:0.76;">
					<path style="fill:#5F4C3F;" d="M648.337,377.479c2.136,0.469,4.303,0.835,6.481,1.095c-1.963-0.481-3.926-0.961-5.888-1.442
						L648.337,377.479z"/>
					<path style="fill:#7A5F49;" d="M654.758,379.07c-2.187-0.261-4.383-0.632-6.528-1.103l-1.248-0.273l1.869-1.096l6.086,1.49
						L654.758,379.07z"/>
				</g>
			</g>
			<g style="opacity:0.4;">
				<path style="fill:#5F4C3F;" d="M616.235,399.59c72.96,11.219,131.379,20.46,131.379,20.46
					c-44.537-7.538-89.076-14.656-131.234-21.148C616.332,399.132,616.284,399.361,616.235,399.59z"/>
				<path style="fill:#7A5F49;" d="M747.536,420.544c-0.584-0.093-59.251-9.369-131.377-20.459l-0.523-0.08l0.352-1.669l0.469,0.072
					c46.224,7.117,90.38,14.232,131.241,21.148L747.536,420.544z"/>
			</g>
			<g style="opacity:0.4;">
				<path style="fill:#5F4C3F;" d="M729.845,398.542c-0.021-0.021-0.035-0.046-0.055-0.068c-10.009-1.554-20.004-3.319-29.985-4.981
					c1.75,0.916,4.126,1.384,6.385,1.789c7.865,1.412,15.873,2.592,23.83,3.437C729.96,398.662,729.904,398.601,729.845,398.542z"/>
				<path style="fill:#7A5F49;" d="M731.289,399.299l-1.323-0.081c-7.631-0.811-15.66-1.97-23.864-3.442
					c-2.42-0.435-4.74-0.901-6.529-1.838l-2.767-1.449l3.081,0.513c3.191,0.531,6.385,1.073,9.579,1.615
					c6.684,1.135,13.595,2.308,20.401,3.364l0.167,0.026L731.289,399.299z"/>
			</g>
			<g style="opacity:0.4;">
				<path style="fill:#5F4C3F;" d="M715.268,383.208c-10.151-1.428-20.281-2.824-30.335-4.134
					c10.075,1.684,20.31,3.116,30.583,4.478C715.418,383.441,715.347,383.323,715.268,383.208z"/>
				<path style="fill:#7A5F49;" d="M716.758,384.221l-1.309-0.173c-9.077-1.204-19.812-2.678-30.6-4.48l0.146-0.989
					c8.802,1.147,18.442,2.461,30.34,4.135l0.219,0.03l0.18,0.264c0.049,0.073,0.097,0.146,0.158,0.217L716.758,384.221z"/>
			</g>
			<g style="opacity:0.4;">
				<path style="fill:#5F4C3F;" d="M698.87,364.755c-10.051-1.561-20.103-3.121-30.154-4.682c-0.017,0.135-0.035,0.269-0.052,0.404
					c10.149,1.548,20.318,3.085,30.483,4.623C699.055,364.986,698.962,364.87,698.87,364.755z"/>
				<path style="fill:#7A5F49;" d="M700.349,365.787l-5.752-0.87c-8.674-1.313-17.348-2.625-26.008-3.946l-0.483-0.073l0.181-1.397
					l30.856,4.791L700.349,365.787z"/>
			</g>
		</g>
		<g style="opacity:0.05;">
			<path style="fill:#232222;" d="M563.335,349.062L396.72,321.433c-7.014-1.163-13.643,3.581-14.806,10.595l-14.157,85.379
				c-1.163,7.014,3.58,13.643,10.594,14.806l185.03,30.682L563.335,349.062z"/>
		</g>
		<g>
			<g>
				<path style="fill:#8D735C;" d="M481.898,680.918l-3.756-20.647l270.265-44.815c7.014-1.163,11.757-7.792,10.594-14.806
					l-14.158-85.379c-1.163-7.014-7.792-11.757-14.806-10.594L459.602,549.52l-3.85-20.379c-0.892-4.723-6.825-6.355-10.007-2.752
					l-75.042,84.968c-5.237,5.93-3.695,15.175,3.183,19.084l99.473,56.534C477.623,689.398,482.776,685.742,481.898,680.918z"/>
			</g>
			<g style="opacity:0.4;">
				<g style="opacity:0.76;">
					<path style="fill:#5F4C3F;" d="M433.086,635.794c-7.941,0.977-14.889,1.69-20.121,1.992
						C412.965,637.786,420.566,637.164,433.086,635.794z"/>
					<path style="fill:#7A5F49;" d="M412.993,638.285l-0.069-0.997c0.076-0.007,7.739-0.638,20.107-1.991l0.115,0.993
						C424.685,637.331,417.905,638.002,412.993,638.285z"/>
				</g>
				<g style="opacity:0.76;">
					<path style="fill:#5F4C3F;" d="M538.39,619.224c-40.659,8.75-81.716,13.989-105.304,16.57
						C473.072,630.874,538.39,619.224,538.39,619.224z"/>
					<path style="fill:#7A5F49;" d="M433.14,636.291l-0.116-0.993c39.516-4.862,104.624-16.45,105.277-16.567l0.193,0.982
						C496.975,628.648,454.665,633.935,433.14,636.291z"/>
				</g>
				<g style="opacity:0.76;">
					<path style="fill:#5F4C3F;" d="M382.439,634.456c8.553-1.24,17.09-2.402,25.613-3.665c-7.325,1.175-16.259,2.615-24.853,4.01
						C382.946,634.683,382.692,634.57,382.439,634.456z"/>
					<path style="fill:#7A5F49;" d="M383.127,635.319l-2.454-1.112l1.695-0.246c3.59-0.519,7.177-1.026,10.761-1.532
						c4.955-0.7,9.905-1.399,14.85-2.132l0.152,0.988c-7.325,1.174-16.258,2.615-24.852,4.009L383.127,635.319z"/>
				</g>
				<g style="opacity:0.76;">
					<path style="fill:#5F4C3F;" d="M408.052,630.791c7.962-1.277,14.028-2.241,15.686-2.488
						C418.515,629.201,413.286,630.015,408.052,630.791z"/>
					<path style="fill:#7A5F49;" d="M408.125,631.285l-0.152-0.988c8.232-1.32,14.099-2.25,15.692-2.487l0.158,0.987
						C419.152,629.599,414.164,630.39,408.125,631.285z"/>
				</g>
				<g style="opacity:0.76;">
					<path style="fill:#5F4C3F;" d="M624.111,603.84c34.507-4.006,90.78-14.147,90.78-14.147
						C679.901,597.497,644.474,601.797,624.111,603.84z"/>
					<path style="fill:#7A5F49;" d="M624.161,604.338l-0.107-0.994c34.097-3.958,90.187-14.041,90.749-14.143l0.197,0.98
						C679.253,598.154,642.743,602.474,624.161,604.338z"/>
				</g>
				<g style="opacity:0.76;">
					<path style="fill:#5F4C3F;" d="M624.111,603.84c-6.852,0.795-12.852,1.35-17.376,1.534
						C606.735,605.375,613.302,604.925,624.111,603.84z"/>
					<path style="fill:#7A5F49;" d="M606.755,605.875l-0.055-0.999c0.065-0.004,6.685-0.462,17.36-1.532l0.107,0.994
						C616.875,605.184,611.016,605.701,606.755,605.875z"/>
				</g>
				<g style="opacity:0.76;">
					<path style="fill:#5F4C3F;" d="M570.865,608.483c-8.152,1.308-16.305,2.615-24.458,3.923
						c-16.465,2.641-32.93,5.282-49.395,7.922c26.688-4.473,53.376-8.946,80.063-13.419c5.355-0.897,11.762-2.127,17.054-2.356
						C589.307,606.264,576.89,607.517,570.865,608.483z"/>
					<path style="fill:#7A5F49;" d="M497.091,620.823l-0.162-0.987l80.064-13.419c0.842-0.141,1.709-0.29,2.595-0.442
						c4.701-0.809,10.029-1.726,14.52-1.921l3.332-0.145l-3.144,1.116c-3.526,1.251-11.071,2.262-17.134,3.074
						c-2.337,0.313-4.544,0.608-6.219,0.878L497.091,620.823z"/>
				</g>
				<g style="opacity:0.76;">
					<path style="fill:#5F4C3F;" d="M612.521,609.755c-11.444,1.696-22.866,3.751-34.272,5.653c1.747-0.916,4.12-1.384,6.375-1.789
						C593.829,611.963,603.237,610.596,612.521,609.755z"/>
					<path style="fill:#7A5F49;" d="M575.252,616.415l2.765-1.449c1.788-0.938,4.104-1.405,6.519-1.839
						c9.962-1.791,19.361-3.093,27.94-3.87l0.118,0.992c-8.088,1.198-16.299,2.6-24.24,3.955c-3.342,0.57-6.683,1.141-10.023,1.697
						L575.252,616.415z"/>
				</g>
				<g style="opacity:0.76;">
					<path style="fill:#5F4C3F;" d="M746.282,588.582c1.56-0.194,3.118-0.386,4.672-0.569
						C749.41,588.246,747.85,588.426,746.282,588.582z"/>
					<path style="fill:#7A5F49;" d="M746.332,589.079l-0.111-0.993c1.561-0.194,3.12-0.387,4.675-0.569l0.134,0.99
						C749.647,588.716,748.155,588.898,746.332,589.079z"/>
				</g>
				<g style="opacity:0.76;">
					<path style="fill:#5F4C3F;" d="M728.642,590.573c5.731-1.185,11.743-1.406,17.64-1.992
						C740.402,589.313,734.495,590.083,728.642,590.573z"/>
					<path style="fill:#7A5F49;" d="M728.684,591.071l-0.143-0.987c4.183-0.866,8.57-1.225,12.813-1.572
						c1.63-0.133,3.259-0.267,4.879-0.427l0.111,0.993l-2.028,0.253C739.182,589.974,733.874,590.638,728.684,591.071z"/>
				</g>
				<g style="opacity:0.76;">
					<path style="fill:#5F4C3F;" d="M707.555,585.251c2.133-0.468,4.297-0.835,6.471-1.095c-1.96,0.481-3.92,0.961-5.879,1.442
						L707.555,585.251z"/>
					<path style="fill:#7A5F49;" d="M708.068,586.132l-1.866-1.096l1.246-0.273c2.138-0.47,4.331-0.842,6.518-1.104l0.179,0.981
						L708.068,586.132z"/>
				</g>
				<g style="opacity:0.76;">
					<path style="fill:#5F4C3F;" d="M758.144,610.556c-40.659,8.75-81.716,13.989-105.304,16.57
						C692.827,622.206,758.144,610.556,758.144,610.556z"/>
					<path style="fill:#7A5F49;" d="M652.895,627.623l-0.116-0.993c39.516-4.862,104.624-16.45,105.277-16.566l0.193,0.981
						C716.711,619.984,674.412,625.269,652.895,627.623z"/>
				</g>
				<g style="opacity:0.76;">
					<path style="fill:#5F4C3F;" d="M718.644,602.259c-18.368,2.751-36.756,5.721-55.096,8.594
						c2.905-0.826,6.731-1.469,10.362-2.055C688.73,606.405,703.825,604.16,718.644,602.259z"/>
					<path style="fill:#7A5F49;" d="M663.625,611.348l-0.214-0.975c2.895-0.824,6.735-1.474,10.419-2.067
						c16.004-2.585,31.06-4.786,44.751-6.543l0.138,0.99c-12.976,1.943-26.172,4.03-38.934,6.048
						C674.395,609.652,669.008,610.504,663.625,611.348z"/>
				</g>
			</g>
			<g style="opacity:0.4;">
				<g style="opacity:0.76;">
					<path style="fill:#5F4C3F;" d="M666.251,574.887c7.953-0.977,14.912-1.69,20.152-1.992
						C686.403,572.894,678.79,573.517,666.251,574.887z"/>
					<path style="fill:#7A5F49;" d="M666.305,575.384l-0.115-0.993c8.475-1.041,15.266-1.712,20.184-1.995l0.069,0.997
						C686.368,573.399,678.692,574.03,666.305,575.384z"/>
				</g>
				<g style="opacity:0.76;">
					<path style="fill:#5F4C3F;" d="M560.787,591.457c40.721-8.75,81.841-13.989,105.464-16.57
						C626.204,579.807,560.787,591.457,560.787,591.457z"/>
					<path style="fill:#7A5F49;" d="M560.875,591.949l-0.193-0.981c41.603-8.938,83.966-14.224,105.515-16.578l0.115,0.993
						C626.736,580.245,561.529,591.833,560.875,591.949z"/>
				</g>
				<g style="opacity:0.76;">
					<path style="fill:#5F4C3F;" d="M744.608,571.729c-17.831,3.367-35.589,5.541-53.285,8.161
						c21.518-3.446,56.893-9.18,56.89-9.313C748.223,570.955,746.227,571.423,744.608,571.729z"/>
					<path style="fill:#7A5F49;" d="M691.396,580.384l-0.152-0.988c23.043-3.69,55.803-9.01,56.81-9.289l0.131,0.471l0.529-0.013
						v0.002l0,0v0.001v0.003c0.001,0.066,0.002,0.123-0.015,0.176c-0.093,0.435-0.712,0.854-3.998,1.474l0,0
						c-12.888,2.435-25.93,4.272-38.543,6.05C701.232,578.963,696.312,579.656,691.396,580.384z"/>
				</g>
				<g style="opacity:0.76;">
					<path style="fill:#5F4C3F;" d="M691.323,579.89c-7.974,1.277-14.05,2.241-15.71,2.488
						C680.844,581.479,686.081,580.666,691.323,579.89z"/>
					<path style="fill:#7A5F49;" d="M675.686,582.871l-0.158-0.987c4.671-0.801,9.667-1.592,15.722-2.488l0.152,0.988
						C683.154,581.704,677.279,582.635,675.686,582.871z"/>
				</g>
				<g style="opacity:0.76;">
					<path style="fill:#5F4C3F;" d="M723.793,569.345c1.963-0.481,3.926-0.962,5.888-1.442l0.592,0.347
						C728.138,568.718,725.97,569.084,723.793,569.345z"/>
					<path style="fill:#7A5F49;" d="M723.852,569.841l-0.179-0.981l6.086-1.491l1.867,1.098l-1.246,0.272
						C728.235,569.208,726.039,569.579,723.852,569.841z"/>
				</g>
				<g style="opacity:0.76;">
					<path style="fill:#5F4C3F;" d="M474.935,606.84c-34.559,4.006-90.919,14.147-90.919,14.147
						C419.06,613.183,454.541,608.884,474.935,606.84z"/>
					<path style="fill:#7A5F49;" d="M384.105,621.479l-0.197-0.98c35.794-7.972,72.364-12.291,90.978-14.156l0.107,0.994
						C440.843,611.295,384.669,621.378,384.105,621.479z"/>
				</g>
				<g style="opacity:0.76;">
					<path style="fill:#5F4C3F;" d="M474.935,606.84c6.863-0.795,12.872-1.35,17.402-1.534
						C492.337,605.306,485.76,605.756,474.935,606.84z"/>
					<path style="fill:#7A5F49;" d="M474.985,607.337l-0.107-0.994c7.306-0.846,13.173-1.363,17.439-1.537l0.055,0.999
						C492.306,605.809,485.676,606.267,474.985,607.337z"/>
				</g>
				<g style="opacity:0.76;">
					<path style="fill:#5F4C3F;" d="M528.262,602.197c8.165-1.308,16.33-2.615,24.495-3.923c16.49-2.641,32.98-5.282,49.47-7.922
						c-26.728,4.473-53.457,8.946-80.185,13.419c-5.363,0.897-11.78,2.127-17.08,2.356
						C509.792,604.416,522.227,603.164,528.262,602.197z"/>
					<path style="fill:#7A5F49;" d="M501.646,606.771l3.148-1.115c3.532-1.251,11.089-2.262,17.161-3.074
						c2.34-0.314,4.551-0.608,6.228-0.878l73.964-11.846l0.162,0.987l-80.185,13.419c-0.845,0.142-1.714,0.291-2.602,0.443
						c-4.708,0.809-10.043,1.725-14.54,1.92L501.646,606.771z"/>
				</g>
				<g style="opacity:0.76;">
					<path style="fill:#5F4C3F;" d="M486.543,600.926c11.461-1.696,22.9-3.751,34.324-5.653c-1.749,0.916-4.126,1.384-6.384,1.789
						C505.263,598.717,495.841,600.085,486.543,600.926z"/>
					<path style="fill:#7A5F49;" d="M486.587,601.424l-0.118-0.992c8.104-1.2,16.329-2.6,24.284-3.956
						c3.345-0.57,6.689-1.14,10.031-1.696l3.081-0.513l-2.767,1.449c-1.789,0.936-4.109,1.403-6.529,1.838
						C504.594,599.345,495.179,600.646,486.587,601.424z"/>
				</g>
				<g style="opacity:0.76;">
					<path style="fill:#5F4C3F;" d="M391.364,625.43c-2.136,0.468-4.303,0.835-6.481,1.095c1.963-0.481,3.926-0.961,5.888-1.442
						L391.364,625.43z"/>
					<path style="fill:#7A5F49;" d="M384.943,627.021l-0.179-0.982l6.086-1.491l1.869,1.096l-1.248,0.274
						C389.329,626.388,387.133,626.76,384.943,627.021z"/>
				</g>
			</g>
			<g style="opacity:0.4;">
				<g style="opacity:0.76;">
					<path style="fill:#5F4C3F;" d="M519.312,571.409c-7.953,0.977-14.912,1.69-20.152,1.992
						C499.16,573.401,506.773,572.779,519.312,571.409z"/>
					<path style="fill:#7A5F49;" d="M499.189,573.9l-0.07-0.997c0.076-0.007,7.752-0.638,20.139-1.991l0.115,0.993
						C510.913,572.944,504.122,573.615,499.189,573.9z"/>
				</g>
				<g style="opacity:0.76;">
					<path style="fill:#5F4C3F;" d="M624.776,554.838c-40.72,8.75-81.841,13.989-105.464,16.57
						C559.359,566.489,624.776,554.838,624.776,554.838z"/>
					<path style="fill:#7A5F49;" d="M519.367,571.906l-0.115-0.993c39.575-4.862,104.783-16.45,105.438-16.566l0.193,0.981
						C583.3,564.263,540.925,569.55,519.367,571.906z"/>
				</g>
				<g style="opacity:0.76;">
					<path style="fill:#5F4C3F;" d="M440.955,574.567c17.831-3.367,35.589-5.541,53.285-8.161
						c-21.518,3.446-56.894,9.18-56.89,9.313C437.34,575.34,439.336,574.873,440.955,574.567z"/>
					<path style="fill:#7A5F49;" d="M437.511,576.19l-0.132-0.472l-0.529,0.016c-0.002-0.07-0.004-0.131,0.015-0.187
						c0.095-0.434,0.721-0.852,3.997-1.472l0,0c12.884-2.433,25.921-4.269,38.529-6.047c4.93-0.694,9.855-1.388,14.775-2.116
						l0.152,0.988C471.285,570.588,438.53,575.906,437.511,576.19z"/>
				</g>
				<g style="opacity:0.76;">
					<path style="fill:#5F4C3F;" d="M494.24,566.406c7.974-1.277,14.049-2.241,15.71-2.488
						C504.719,564.816,499.482,565.63,494.24,566.406z"/>
					<path style="fill:#7A5F49;" d="M494.313,566.9l-0.152-0.988c8.414-1.348,14.142-2.255,15.716-2.488l0.158,0.987
						C505.366,565.213,500.37,566.004,494.313,566.9z"/>
				</g>
				<g style="opacity:0.76;">
					<path style="fill:#5F4C3F;" d="M461.77,576.951c-1.963,0.481-3.926,0.961-5.888,1.442l-0.592-0.347
						C457.426,577.577,459.593,577.211,461.77,576.951z"/>
					<path style="fill:#7A5F49;" d="M455.804,578.927l-1.871-1.095l1.249-0.274c2.145-0.471,4.342-0.842,6.528-1.103l0.179,0.981
						L455.804,578.927z"/>
				</g>
				<g style="opacity:0.76;">
					<path style="fill:#5F4C3F;" d="M750.588,551.671c0.027,0.135,0.062,0.269,0.092,0.403c-31.077,6.263-61.14,9.866-79.275,11.683
						C696.201,560.883,732.215,554.851,750.588,551.671z"/>
					<path style="fill:#7A5F49;" d="M671.455,564.254l-0.107-0.994c24.62-2.854,60.161-8.794,79.155-12.081l0.479-0.083l0.299,1.367
						l-0.502,0.102C720.26,558.714,690.797,562.316,671.455,564.254z"/>
				</g>
				<g style="opacity:0.76;">
					<path style="fill:#5F4C3F;" d="M710.628,539.455c-6.863,0.795-12.872,1.35-17.402,1.534
						C693.226,540.99,699.803,540.54,710.628,539.455z"/>
					<path style="fill:#7A5F49;" d="M693.246,541.489l-0.055-0.999c0.065-0.004,6.695-0.461,17.387-1.532l0.107,0.994
						C703.383,540.799,697.515,541.315,693.246,541.489z"/>
				</g>
				<g style="opacity:0.76;">
					<path style="fill:#5F4C3F;" d="M657.301,544.098c-8.165,1.308-16.33,2.615-24.495,3.923c-16.49,2.641-32.98,5.282-49.47,7.922
						c26.728-4.473,53.457-8.946,80.185-13.419c5.363-0.897,11.78-2.127,17.08-2.356
						C675.771,541.879,663.336,543.132,657.301,544.098z"/>
					<path style="fill:#7A5F49;" d="M583.416,556.438l-0.162-0.987l80.186-13.419c0.839-0.141,1.704-0.289,2.586-0.44
						c4.713-0.81,10.054-1.727,14.555-1.922l3.339-0.144l-3.15,1.116c-3.532,1.25-11.089,2.262-17.16,3.074
						c-2.34,0.313-4.551,0.608-6.227,0.878L583.416,556.438z"/>
				</g>
				<g style="opacity:0.76;">
					<path style="fill:#5F4C3F;" d="M717.148,542.642c-17.499,2.604-34.993,5.571-52.452,8.381c2.724-1.063,6.361-1.72,9.816-2.306
						C688.612,546.328,702.995,544.213,717.148,542.642z"/>
					<path style="fill:#7A5F49;" d="M660.143,552.262l4.371-1.705c2.729-1.064,6.246-1.711,9.914-2.333
						c15.239-2.582,29.594-4.628,42.665-6.079l0.128,0.991c-12.381,1.843-24.963,3.9-37.13,5.89
						c-5.107,0.835-10.214,1.669-15.316,2.49L660.143,552.262z"/>
				</g>
				<g style="opacity:0.76;">
					<path style="fill:#5F4C3F;" d="M650.661,620.542c5.74-1.185,11.761-1.406,17.666-1.991
						C662.439,619.283,656.523,620.053,650.661,620.542z"/>
					<path style="fill:#7A5F49;" d="M650.703,621.041l-0.144-0.987c4.192-0.866,8.587-1.226,12.838-1.573
						c1.63-0.133,3.26-0.267,4.881-0.427l0.111,0.993l-2.037,0.254C661.214,619.943,655.899,620.606,650.703,621.041z"/>
				</g>
				<g style="opacity:0.76;">
					<path style="fill:#5F4C3F;" d="M629.542,615.22c2.136-0.468,4.303-0.835,6.481-1.095c-1.963,0.481-3.925,0.961-5.888,1.442
						L629.542,615.22z"/>
					<path style="fill:#7A5F49;" d="M630.055,616.102l-1.867-1.098l1.246-0.273c2.155-0.472,4.352-0.843,6.528-1.102l0.179,0.982
						L630.055,616.102z"/>
				</g>
			</g>
			<g style="opacity:0.4;">
				<g style="opacity:0.76;">
					<path style="fill:#5F4C3F;" d="M743.377,511.307c0.017,0.05,0.034,0.1,0.051,0.15c-40.057,5.404-95.585,15.292-95.585,15.292
						C683.336,519.123,719.128,514.164,743.377,511.307z"/>
					<path style="fill:#7A5F49;" d="M647.93,527.241l-0.193-0.981c35.672-7.664,71.667-12.632,95.582-15.449l0.406-0.049
						l0.379,1.108l-0.609,0.082C703.907,517.293,648.485,527.143,647.93,527.241z"/>
				</g>
				<g style="opacity:0.76;">
					<path style="fill:#5F4C3F;" d="M418.004,653.945c78.339-12.008,171.276-26.296,171.313-26.413
						c-0.124,0.399-7.774,1.717-13.947,2.708c-52.72,8.465-104.968,16.147-157.092,23.863
						C418.187,654.051,418.096,653.998,418.004,653.945z"/>
					<path style="fill:#7A5F49;" d="M418.176,654.625l-1.578-0.916l1.33-0.258c84.251-12.914,169.88-26.086,171.26-26.401
						l0.108,0.475l0.498,0.155v0.002l0,0l-0.001,0.002c-0.002,0.006-0.003,0.011-0.005,0.016c-0.128,0.399-0.44,0.804-14.34,3.036
						c-49.107,7.883-98.551,15.2-146.367,22.275L418.176,654.625z"/>
				</g>
				<g style="opacity:0.76;">
					<path style="fill:#5F4C3F;" d="M745.649,530.769c-7.974,1.277-14.05,2.241-15.71,2.488
						C735.17,532.358,740.407,531.545,745.649,530.769z"/>
					<path style="fill:#7A5F49;" d="M730.012,533.75l-0.158-0.987c4.678-0.802,9.674-1.593,15.722-2.488l0.152,0.988
						C737.492,532.581,731.617,533.512,730.012,533.75z"/>
				</g>
				<g style="opacity:0.76;">
					<path style="fill:#5F4C3F;" d="M574.247,574.251c7.531-1.319,15.062-2.637,22.592-3.956l2.062,0.126
						C590.731,571.798,582.483,573.079,574.247,574.251z"/>
					<path style="fill:#7A5F49;" d="M574.317,574.746l-0.156-0.987l22.65-3.967l6.481,0.396l-4.308,0.726
						C590.829,572.288,582.529,573.577,574.317,574.746z"/>
				</g>
				<g style="opacity:0.76;">
					<path style="fill:#5F4C3F;" d="M561.991,542.133c-34.559,4.006-90.919,14.147-90.919,14.147
						C506.116,548.476,541.597,544.176,561.991,542.133z"/>
					<path style="fill:#7A5F49;" d="M471.162,556.773l-0.197-0.981c35.81-7.976,72.371-12.293,90.978-14.156l0.107,0.994
						C527.9,546.588,471.725,556.671,471.162,556.773z"/>
				</g>
				<g style="opacity:0.76;">
					<path style="fill:#5F4C3F;" d="M561.991,542.133c6.863-0.795,12.872-1.35,17.402-1.534
						C579.394,540.598,572.816,541.048,561.991,542.133z"/>
					<path style="fill:#7A5F49;" d="M562.042,542.63l-0.107-0.994c7.303-0.847,13.17-1.363,17.44-1.537l0.055,0.999
						C579.363,541.102,572.733,541.559,562.042,542.63z"/>
				</g>
				<g style="opacity:0.76;">
					<path style="fill:#5F4C3F;" d="M615.318,537.49c8.165-1.308,16.33-2.615,24.495-3.923c16.49-2.641,32.98-5.282,49.47-7.922
						c-26.729,4.473-53.457,8.946-80.185,13.419c-5.363,0.898-11.78,2.127-17.08,2.356
						C596.848,539.709,609.284,538.456,615.318,537.49z"/>
					<path style="fill:#7A5F49;" d="M588.701,542.063l3.15-1.116c3.532-1.25,11.089-2.262,17.16-3.074
						c2.34-0.313,4.551-0.608,6.227-0.878l73.965-11.845l0.162,0.987l-80.186,13.419c-0.839,0.141-1.704,0.289-2.586,0.44
						c-4.713,0.81-10.054,1.727-14.555,1.922L588.701,542.063z"/>
				</g>
				<g style="opacity:0.76;">
					<path style="fill:#5F4C3F;" d="M573.599,536.218c11.461-1.696,22.9-3.751,34.324-5.653c-1.749,0.916-4.126,1.384-6.385,1.789
						C592.319,534.01,582.897,535.377,573.599,536.218z"/>
					<path style="fill:#7A5F49;" d="M573.644,536.716l-0.118-0.992c8.109-1.2,16.343-2.602,24.304-3.959
						c3.339-0.568,6.676-1.137,10.012-1.692l3.083-0.514l-2.769,1.45c-1.784,0.934-4.106,1.402-6.527,1.838
						C591.659,534.637,582.244,535.938,573.644,536.716z"/>
				</g>
				<g style="opacity:0.76;">
					<path style="fill:#5F4C3F;" d="M439.634,557.391c-1.562,0.194-3.122,0.386-4.679,0.569
						C436.501,557.727,438.064,557.547,439.634,557.391z"/>
					<path style="fill:#7A5F49;" d="M435.014,558.457l-0.133-0.991c1.41-0.212,2.904-0.393,4.704-0.572l0.11,0.994
						C438.133,558.081,436.571,558.273,435.014,558.457z"/>
				</g>
				<g style="opacity:0.76;">
					<path style="fill:#5F4C3F;" d="M457.301,555.4c-5.74,1.185-11.761,1.406-17.666,1.991
						C445.523,556.66,451.439,555.889,457.301,555.4z"/>
					<path style="fill:#7A5F49;" d="M439.684,557.889l-0.111-0.993l1.944-0.243c5.17-0.646,10.515-1.314,15.741-1.751l0.144,0.987
						c-4.191,0.866-8.586,1.226-12.837,1.573C442.935,557.595,441.305,557.729,439.684,557.889z"/>
				</g>
				<g style="opacity:0.76;">
					<path style="fill:#5F4C3F;" d="M478.42,560.722c-2.136,0.468-4.303,0.835-6.481,1.095c1.963-0.481,3.926-0.961,5.888-1.442
						L478.42,560.722z"/>
					<path style="fill:#7A5F49;" d="M472,562.313l-0.179-0.982l6.085-1.491l1.87,1.097l-1.248,0.273
						C476.383,561.681,474.186,562.052,472,562.313z"/>
				</g>
			</g>
			<g style="opacity:0.4;">
				<path style="fill:#5F4C3F;" d="M510.522,582.833c-72.96,11.219-131.379,20.46-131.379,20.46
					c44.537-7.538,89.076-14.656,131.234-21.148C510.426,582.375,510.474,582.604,510.522,582.833z"/>
				<path style="fill:#7A5F49;" d="M379.221,603.787l-0.161-0.987c40.86-6.916,85.017-14.031,131.241-21.148l0.467-0.072
					l0.351,1.668l-0.521,0.08C438.473,594.417,379.805,603.694,379.221,603.787z"/>
			</g>
			<g style="opacity:0.4;">
				<path style="fill:#5F4C3F;" d="M396.913,581.785c0.021-0.021,0.035-0.046,0.055-0.068c10.009-1.554,20.004-3.319,29.985-4.981
					c-1.75,0.916-4.126,1.384-6.384,1.789c-7.865,1.412-15.873,2.592-23.83,3.437C396.798,581.904,396.854,581.844,396.913,581.785z
					"/>
				<path style="fill:#7A5F49;" d="M395.385,582.609l1.339-1.359l0.167-0.026c6.829-1.06,13.764-2.237,20.47-3.376
					c3.172-0.538,6.342-1.076,9.511-1.604l3.084-0.514l-2.77,1.45c-1.791,0.938-4.207,1.423-6.528,1.839
					c-8.225,1.475-16.254,2.634-23.865,3.441L395.385,582.609z"/>
			</g>
			<g style="opacity:0.4;">
				<path style="fill:#5F4C3F;" d="M411.49,566.451c10.151-1.428,20.281-2.824,30.335-4.134c-10.075,1.684-20.31,3.116-30.583,4.478
					C411.339,566.683,411.411,566.566,411.49,566.451z"/>
				<path style="fill:#7A5F49;" d="M409.989,567.466l0.877-1.001c0.06-0.068,0.106-0.14,0.154-0.211l0.182-0.268l0.219-0.03
					c11.874-1.671,21.515-2.985,30.34-4.135l0.146,0.989c-10.783,1.802-21.52,3.276-30.6,4.481L409.989,567.466z"/>
			</g>
			<g style="opacity:0.4;">
				<path style="fill:#5F4C3F;" d="M427.887,547.998c10.051-1.561,20.103-3.121,30.154-4.682c0.017,0.135,0.035,0.269,0.052,0.404
					c-10.149,1.548-20.318,3.085-30.483,4.623C427.703,548.228,427.796,548.113,427.887,547.998z"/>
				<path style="fill:#7A5F49;" d="M426.408,549.03l1.21-1.496l0.192-0.03l30.66-4.761l0.178,1.397l-0.48,0.073
					c-8.956,1.366-17.929,2.724-26.899,4.081L426.408,549.03z"/>
			</g>
		</g>
		<g style="opacity:0.05;">
			<path style="fill:#232222;" d="M563.228,532.337L459.602,549.52l-3.85-20.379c-0.892-4.723-6.825-6.355-10.007-2.752
				l-75.042,84.968c-5.237,5.93-3.695,15.175,3.183,19.084l99.473,56.534c4.263,2.423,9.416-1.232,8.539-6.057l-3.756-20.647
				l87.829-14.564L563.228,532.337z"/>
		</g>
		<g style="opacity:0.3;">
			<polygon style="fill:#232222;" points="541.494,335.189 580.218,293.62 580.218,278.328 541.494,278.328 			"/>
		</g>
		<g>
			<g>
				<path style="fill:#7E6555;" d="M380.758,170.985l360.613,13.186c6.276,0.229,11.83,1.57,15.43,8.573
					c1.876,3.649,2.271,9.283,1.721,16.204l-4.415,66.826c0,0-2.011,9.767-5.058,12.147c-4.113,3.213-9.838,9.206-20.198,8.827
					l-345.115-10.842c-23.183-0.848-21.532-25.981-20.303-54.908l1.661-39.1c0.24-5.654,0.537-12.187,1.537-15.504
					C368.836,169.074,373.311,170.713,380.758,170.985z"/>
			</g>
			<g style="opacity:0.65;">
				<g style="opacity:0.76;">
					<path style="fill:#6E5743;" d="M671.07,266.87c7.138,0.067,13.369,0.001,18.038-0.258
						C689.108,266.612,682.307,266.825,671.07,266.87z"/>
				</g>
				<g style="opacity:0.76;">
					<path style="fill:#6E5743;" d="M576.053,262.78c36.923,3.661,73.847,4.174,95.017,4.09
						C635.128,266.532,576.053,262.78,576.053,262.78z"/>
				</g>
				<g style="opacity:0.76;">
					<path style="fill:#6E5743;" d="M740.748,261.807c-16.122-1.193-32.059-1.335-47.985-1.88
						c19.393,0.892,51.282,2.42,51.292,2.538C744.025,262.129,742.211,261.915,740.748,261.807z"/>
				</g>
				<g style="opacity:0.76;">
					<path style="fill:#6E5743;" d="M692.762,259.927c-7.187-0.331-12.661-0.574-14.156-0.626
						C683.327,259.571,688.044,259.766,692.762,259.927z"/>
				</g>
				<g style="opacity:0.76;">
					<path style="fill:#6E5743;" d="M722.561,266.005c1.786,0.229,3.571,0.457,5.357,0.686l0.49-0.367
						C726.47,266.124,724.515,266.017,722.561,266.005z"/>
				</g>
				<g style="opacity:0.76;">
					<path style="fill:#6E5743;" d="M498.516,257.773c-30.993-0.08-81.898-3.404-81.898-3.404
						C448.42,257.763,480.258,258.01,498.516,257.773z"/>
				</g>
				<g style="opacity:0.76;">
					<path style="fill:#6E5743;" d="M498.516,257.773c6.155,0.016,11.529-0.096,15.558-0.387
						C514.074,257.386,508.207,257.648,498.516,257.773z"/>
				</g>
				<g style="opacity:0.76;">
					<path style="fill:#6E5743;" d="M546.186,256.535c7.358,0.339,14.717,0.677,22.076,1.016
						c14.862,0.684,29.723,1.367,44.584,2.051c-24.108-1.279-48.216-2.557-72.325-3.836c-4.837-0.257-10.641-0.701-15.355-0.373
						C529.614,256.423,540.747,256.285,546.186,256.535z"/>
				</g>
				<g style="opacity:0.76;">
					<path style="fill:#6E5743;" d="M509.384,261.845c10.315,0.352,20.647,1.023,30.95,1.561c-1.64-0.635-3.791-0.811-5.831-0.943
						C526.176,261.922,517.699,261.656,509.384,261.845z"/>
				</g>
				<g style="opacity:0.76;">
					<path style="fill:#6E5743;" d="M388.677,256.538c-1.402-0.015-2.803-0.029-4.199-0.034
						C385.87,256.555,387.271,256.558,388.677,256.538z"/>
				</g>
				<g style="opacity:0.76;">
					<path style="fill:#6E5743;" d="M404.515,256.53c-5.199-0.474-10.552-0.065-15.838,0.009
						C393.963,256.595,399.277,256.684,404.515,256.53z"/>
				</g>
				<g style="opacity:0.76;">
					<path style="fill:#6E5743;" d="M422.676,249.7c-1.938-0.2-3.893-0.307-5.846-0.319c1.786,0.229,3.571,0.457,5.357,0.686
						L422.676,249.7z"/>
				</g>
				<g style="opacity:0.76;">
					<path style="fill:#6E5743;" d="M380.364,277.181c36.923,3.661,73.847,4.174,95.017,4.09
						C439.439,280.933,380.364,277.181,380.364,277.181z"/>
				</g>
				<g style="opacity:0.76;">
					<path style="fill:#6E5743;" d="M414.551,265.869c16.56,0.59,33.159,1.372,49.707,2.073c-2.658-0.44-6.115-0.624-9.392-0.778
						C441.486,266.535,427.879,266.063,414.551,265.869z"/>
				</g>
			</g>
			<g style="opacity:0.65;">
				<g style="opacity:0.76;">
					<path style="fill:#6E5743;" d="M458.129,236.391c-7.138-0.067-13.369-0.001-18.038,0.258
						C440.091,236.649,446.893,236.436,458.129,236.391z"/>
				</g>
				<g style="opacity:0.76;">
					<path style="fill:#6E5743;" d="M553.147,240.481c-36.923-3.661-73.847-4.174-95.017-4.09
						C494.072,236.729,553.147,240.481,553.147,240.481z"/>
				</g>
				<g style="opacity:0.76;">
					<path style="fill:#6E5743;" d="M388.452,241.454c16.121,1.193,32.059,1.335,47.985,1.88
						c-19.393-0.892-51.282-2.42-51.292-2.538C385.175,241.132,386.988,241.346,388.452,241.454z"/>
				</g>
				<g style="opacity:0.76;">
					<path style="fill:#6E5743;" d="M436.438,243.334c7.187,0.331,12.661,0.574,14.156,0.626
						C445.873,243.69,441.156,243.495,436.438,243.334z"/>
				</g>
				<g style="opacity:0.76;">
					<path style="fill:#6E5743;" d="M406.638,237.256c-1.786-0.229-3.571-0.457-5.357-0.686l-0.489,0.367
						C402.73,237.137,404.685,237.244,406.638,237.256z"/>
				</g>
				<g style="opacity:0.76;">
					<path style="fill:#6E5743;" d="M630.684,245.488c30.993,0.08,81.898,3.404,81.898,3.404
						C680.78,245.498,648.942,245.251,630.684,245.488z"/>
				</g>
				<g style="opacity:0.76;">
					<path style="fill:#6E5743;" d="M630.684,245.488c-6.155-0.016-11.529,0.096-15.558,0.387
						C615.126,245.875,620.993,245.613,630.684,245.488z"/>
				</g>
				<g style="opacity:0.76;">
					<path style="fill:#6E5743;" d="M583.014,246.726c-7.359-0.339-14.717-0.677-22.076-1.016
						c-14.861-0.684-29.723-1.368-44.584-2.051c24.108,1.279,48.216,2.557,72.325,3.836c4.837,0.257,10.641,0.701,15.355,0.373
						C599.586,246.838,588.453,246.976,583.014,246.726z"/>
				</g>
				<g style="opacity:0.76;">
					<path style="fill:#6E5743;" d="M619.816,241.416c-10.315-0.352-20.647-1.023-30.95-1.561c1.64,0.635,3.791,0.811,5.831,0.943
						C603.024,241.339,611.501,241.605,619.816,241.416z"/>
				</g>
				<g style="opacity:0.76;">
					<path style="fill:#6E5743;" d="M740.523,246.723c1.402,0.015,2.803,0.029,4.199,0.034
						C743.33,246.706,741.928,246.703,740.523,246.723z"/>
				</g>
				<g style="opacity:0.76;">
					<path style="fill:#6E5743;" d="M724.685,246.731c5.2,0.473,10.552,0.065,15.838-0.009
						C735.237,246.665,729.923,246.577,724.685,246.731z"/>
				</g>
				<g style="opacity:0.76;">
					<path style="fill:#6E5743;" d="M706.524,253.561c1.938,0.2,3.893,0.307,5.846,0.319c-1.786-0.229-3.571-0.457-5.357-0.686
						L706.524,253.561z"/>
				</g>
			</g>
			<g style="opacity:0.65;">
				<g style="opacity:0.76;">
					<path style="fill:#6E5743;" d="M587.849,218.575c7.138,0.067,13.369,0.001,18.038-0.258
						C605.886,218.317,599.085,218.53,587.849,218.575z"/>
				</g>
				<g style="opacity:0.76;">
					<path style="fill:#6E5743;" d="M492.831,214.485c36.923,3.661,73.847,4.174,95.017,4.09
						C551.906,218.237,492.831,214.485,492.831,214.485z"/>
				</g>
				<g style="opacity:0.76;">
					<path style="fill:#6E5743;" d="M657.526,213.512c-16.122-1.193-32.059-1.335-47.985-1.88
						c19.393,0.892,51.282,2.42,51.292,2.538C660.803,213.834,658.99,213.62,657.526,213.512z"/>
				</g>
				<g style="opacity:0.76;">
					<path style="fill:#6E5743;" d="M609.54,211.632c-7.187-0.331-12.661-0.574-14.156-0.626
						C600.105,211.276,604.822,211.471,609.54,211.632z"/>
				</g>
				<g style="opacity:0.76;">
					<path style="fill:#6E5743;" d="M639.339,217.71c1.786,0.229,3.571,0.457,5.357,0.686l0.49-0.367
						C643.248,217.829,641.293,217.722,639.339,217.71z"/>
				</g>
				<g style="opacity:0.76;">
					<path style="fill:#6E5743;" d="M452.451,227.056c-30.993-0.079-81.898-3.404-81.898-3.404
						C402.355,227.045,434.193,227.292,452.451,227.056z"/>
				</g>
				<g style="opacity:0.76;">
					<path style="fill:#6E5743;" d="M415.294,209.478c6.155,0.016,11.529-0.096,15.558-0.387
						C430.852,209.091,424.985,209.353,415.294,209.478z"/>
				</g>
				<g style="opacity:0.76;">
					<path style="fill:#6E5743;" d="M462.964,208.24c7.358,0.339,14.717,0.677,22.076,1.016c14.861,0.684,29.723,1.368,44.584,2.051
						c-24.108-1.279-48.216-2.557-72.325-3.836c-4.837-0.257-10.641-0.701-15.355-0.373
						C446.392,208.128,457.525,207.99,462.964,208.24z"/>
				</g>
				<g style="opacity:0.76;">
					<path style="fill:#6E5743;" d="M409.842,212.953c15.751,0.55,31.534,1.421,47.27,2.158c-2.518-0.667-5.804-0.884-8.92-1.056
						C435.471,213.353,422.528,212.924,409.842,212.953z"/>
				</g>
				<g style="opacity:0.76;">
					<path style="fill:#6E5743;" d="M476.508,275.241c-5.199-0.473-10.552-0.065-15.838,0.009
						C465.957,275.307,471.271,275.396,476.508,275.241z"/>
				</g>
				<g style="opacity:0.76;">
					<path style="fill:#6E5743;" d="M494.669,268.411c-1.938-0.2-3.893-0.307-5.846-0.319c1.786,0.229,3.571,0.457,5.357,0.686
						L494.669,268.411z"/>
				</g>
			</g>
			<g style="opacity:0.65;">
				<g style="opacity:0.76;">
					<path style="fill:#6E5743;" d="M382.908,211.939c-7.138-0.067-13.369-0.001-18.038,0.258
						C364.87,212.197,371.671,211.984,382.908,211.939z"/>
				</g>
				<g style="opacity:0.76;">
					<path style="fill:#6E5743;" d="M469.937,191.896c-36.923-3.661-73.847-4.174-95.017-4.09
						C410.862,188.144,469.937,191.896,469.937,191.896z"/>
				</g>
				<g style="opacity:0.76;">
					<path style="fill:#6E5743;" d="M544.469,276.236c61.276,2.844,121.729,4.614,182.189,6.787
						c-73.648-2.876-194.754-7.666-194.807-7.785C532.002,275.578,538.905,275.978,544.469,276.236z"/>
				</g>
				<g style="opacity:0.76;">
					<path style="fill:#6E5743;" d="M383.764,205.263c7.187,0.331,12.661,0.574,14.156,0.626
						C393.199,205.619,388.482,205.424,383.764,205.263z"/>
				</g>
				<g style="opacity:0.76;">
					<path style="fill:#6E5743;" d="M539.847,226.562c-6.798-0.412-13.597-0.824-20.395-1.236l-1.813,0.318
						C525.01,226.044,532.439,226.351,539.847,226.562z"/>
				</g>
				<g style="opacity:0.76;">
					<path style="fill:#6E5743;" d="M547.474,196.902c30.993,0.08,81.899,3.404,81.899,3.404
						C597.57,196.913,565.732,196.666,547.474,196.902z"/>
				</g>
				<g style="opacity:0.76;">
					<path style="fill:#6E5743;" d="M547.474,196.902c-6.155-0.016-11.529,0.096-15.558,0.387
						C531.916,197.289,537.784,197.028,547.474,196.902z"/>
				</g>
				<g style="opacity:0.76;">
					<path style="fill:#6E5743;" d="M499.805,198.141c-7.359-0.339-14.717-0.677-22.076-1.016
						c-14.861-0.684-29.723-1.367-44.585-2.051c24.108,1.279,48.216,2.557,72.325,3.836c4.837,0.257,10.641,0.701,15.355,0.373
						C516.377,198.253,505.243,198.391,499.805,198.141z"/>
				</g>
				<g style="opacity:0.76;">
					<path style="fill:#6E5743;" d="M536.606,192.831c-10.315-0.352-20.647-1.023-30.95-1.561c1.64,0.635,3.791,0.811,5.831,0.943
						C519.814,192.753,528.291,193.019,536.606,192.831z"/>
				</g>
				<g style="opacity:0.76;">
					<path style="fill:#6E5743;" d="M657.313,198.137c1.402,0.015,2.803,0.029,4.199,0.034
						C660.12,198.12,658.719,198.117,657.313,198.137z"/>
				</g>
				<g style="opacity:0.76;">
					<path style="fill:#6E5743;" d="M641.476,198.146c5.199,0.473,10.552,0.065,15.838-0.009
						C652.027,198.08,646.713,197.992,641.476,198.146z"/>
				</g>
				<g style="opacity:0.76;">
					<path style="fill:#6E5743;" d="M623.315,204.976c1.938,0.2,3.893,0.307,5.846,0.319c-1.786-0.229-3.571-0.457-5.357-0.686
						L623.315,204.976z"/>
				</g>
			</g>
			<g style="opacity:0.65;">
				<path style="fill:#6E5743;" d="M596.775,227.806c65.708,2.613,118.347,4.934,118.347,4.934
					c-40.179-2.206-80.319-4.04-118.288-5.558C596.814,227.391,596.795,227.598,596.775,227.806z"/>
			</g>
			<g style="opacity:0.65;">
				<path style="fill:#6E5743;" d="M757.456,221.046c0.011-0.224,0.029-0.447,0.055-0.669c-18.182-0.823-34.404-0.861-45.556-0.716
					C725.314,219.695,742.37,220.332,757.456,221.046z"/>
			</g>
			<g style="opacity:0.65;">
				<path style="fill:#6E5743;" d="M701.088,215.59c-10.315-0.352-20.647-1.023-30.95-1.561c1.64,0.635,3.791,0.811,5.831,0.943
					C684.296,215.512,692.773,215.778,701.088,215.59z"/>
			</g>
			<g style="opacity:0.65;">
				<path style="fill:#6E5743;" d="M686.019,205.236c17.396,0.919,35.215,0.967,52.845,1.344
					C721.221,206.071,703.481,205.528,686.019,205.236z"/>
			</g>
			<g style="opacity:0.65;">
				<path style="fill:#6E5743;" d="M607.231,186.669c37.908,1.516,76.094,2.947,114.161,4.28
					c-34.972-1.442-69.942-2.884-104.914-4.326L607.231,186.669z"/>
			</g>
		</g>
		<g style="opacity:0.05;">
			<path style="fill:#232222;" d="M560.857,177.571l-180.099-6.585c-7.446-0.272-11.922-1.911-14.128,5.407
				c-1,3.317-1.297,9.85-1.537,15.504l-1.661,39.1c-1.229,28.928-2.879,54.06,20.303,54.908l178.256,5.6L560.857,177.571z"/>
		</g>
	</g>
</g>
</svg>
